<svg id="IntTransfersSquareSvg" width="270px" height="270px" viewBox="0 0 270 270" version="1.1" xmlns="http://www.w3.org/2000/svg" xmlns:xlink="http://www.w3.org/1999/xlink">
		<defs>
			<rect id="pathSquareIntTransfers-2" x="0" y="0" width="270" height="270" rx="10"></rect>
			<linearGradient id="linearGradientSquareIntTransfers-1" x1="-135.259832%" y1="-15.0800833%" x2="79.172751%" y2="118.211508%">
				<stop stop-color="#93A9D6" offset="0%"></stop>
				<stop stop-color="#E0E7F7" offset="100%"></stop>
			</linearGradient>
			<linearGradient id="linearGradientSquareIntTransfers-2" x1="79.9881596%" y1="38.0616925%" x2="-116.986954%" y2="119.208769%">
				<stop stop-color="#93A9D6" offset="0%"></stop>
				<stop stop-color="#E0E7F7" offset="100%"></stop>
			</linearGradient>
			<linearGradient id="linearGradientSquareIntTransfers-3" x1="41.8152729%" y1="56.4195113%" x2="-59.3948089%" y2="150.961755%">
				<stop stop-color="#93A9D6" offset="0%"></stop>
				<stop stop-color="#E0E7F7" offset="100%"></stop>
			</linearGradient>
			<linearGradient id="linearGradientSquareIntTransfers-4" x1="95.4219498%" y1="78.6544859%" x2="-20.3378744%" y2="78.6544859%">
				<stop stop-color="#93A9D6" offset="0%"></stop>
				<stop stop-color="#E0E7F7" offset="100%"></stop>
			</linearGradient>
			<linearGradient id="linearGradientSquareIntTransfers-5" x1="-63.0366072%" y1="31.4236178%" x2="121.040384%" y2="69.2644239%">
				<stop stop-color="#6BA3DE" offset="0%"></stop>
				<stop stop-color="#202873" offset="100%"></stop>
			</linearGradient>
		</defs>
		<g stroke="none" stroke-width="1" fill="none" fill-rule="evenodd">
			<g transform="translate(-102.000000, -942.000000)">
				<g transform="translate(102.000000, 942.000000)">
					<mask id="maskSquareIntTransfers-9" fill="white">
						<use xlink:href="#pathSquareIntTransfers-2"></use>
					</mask>
					<use id="MaskIntTransfersSquare" fill="#FFFFFF" xlink:href="#pathSquareIntTransfers-2"></use>
					<polygon fill="url(#linearGradientSquareIntTransfers-1)" mask="url(#maskSquareIntTransfers-9)" points="0 239.983606 270 85.0328479 270 270 0 270"></polygon>
					<g mask="url(#maskSquareIntTransfers-9)">
						<g transform="translate(125.000000, 55.000000)">
							<polygon fill="#DFE6F6" fill-rule="nonzero" points="0.41815678 149.623206 107.48679 211.484036 214.581843 149.623206 107.581992 87.8179743"></polygon>
							<polygon fill="#BDCBE8" fill-rule="nonzero" points="214.581843 149.623206 214.581843 159.13917 107.48679 221 107.48679 211.484036"></polygon>
							<polygon fill="#D2DCF1" fill-rule="nonzero" points="0.41815678 149.623206 0.41815678 159.13917 107.48679 221 107.48679 211.484036"></polygon>
							<polygon fill="url(#linearGradientSquareIntTransfers-2)" fill-rule="nonzero" points="107.48679 201.968072 198.107924 149.623206 198.107924 83.0123692 107.48679 135.349944"></polygon>
							<polygon fill="#BDCBE8" fill-rule="nonzero" points="16.8920763 83.0123692 16.8920763 149.623206 107.48679 201.968072 107.48679 135.349944"></polygon>
							<polygon fill="#D2DCF1" fill-rule="nonzero" points="8.65466102 78.2541593 8.65466102 87.7701233 107.48679 144.872743 206.345339 87.7701233 206.345339 78.2541593 107.499544 21.1592865"></polygon>
							<polygon fill="#DFE6F6" fill-rule="nonzero" points="8.65466102 78.2541593 107.48679 135.349944 206.345339 78.2541593 107.499544 21.1592865"></polygon>
							<polygon fill="url(#linearGradientSquareIntTransfers-3)" fill-rule="nonzero" points="25.129036 78.254615 107.48679 125.841727 189.870964 78.254615 107.499544 30.6752505"></polygon>
							<polygon fill="#BDCBE8" fill-rule="nonzero" points="33.3596186 83.016015 107.48679 40.1834673 107.499544 30.6752505 25.129036 78.254615"></polygon>
							<polyline fill="#BDCBE8" fill-rule="nonzero" points="189.870964 78.254615 181.627172 83.016015 107.48679 40.1834673 107.499544 30.6752505"></polyline>
							<polygon fill="#29407A" fill-rule="nonzero" points="82.7790996 197.194823 82.774089 130.586721 33.3664513 101.862464 33.3664513 168.468743 41.6029555 173.226497 41.5979449 116.313914 74.5425953 135.344019 74.5425953 192.437069"></polygon>
							<g stroke-width="1" fill="none" fill-rule="evenodd" transform="translate(41.451271, 116.183577)">
								<polygon fill="#172750" fill-rule="nonzero" points="41.3246398 14.4131696 41.3373941 81.0167149 49.5652436 76.2644294 49.5652436 19.1581635"></polygon>
								<polygon fill="#172750" fill-rule="nonzero" points="0.151684322 57.0429203 8.38909958 52.292002 8.38909958 4.89219261 0.146673729 0.130336943"></polygon>
							</g>
							<path d="M68.0210805,156.284062 C68.0233581,146.771744 65.3272034,137.493667 62.0288665,135.666216 C58.7309852,133.838764 56.032553,140.125471 56.032553,149.637789 L56.032553,172.002424 L68.0256356,178.941271 L68.0210805,156.284062 Z" fill="#29407A" fill-rule="nonzero"></path>
							<path d="M66.8271928,160.02692 C66.8290148,152.4095 64.6699047,144.979383 62.028411,143.515599 C59.3869174,142.051814 57.2264407,147.087104 57.2264407,154.70498 L57.2264407,172.615372 L66.8308369,178.172465 L66.8271928,160.02692 Z" fill="#344B89" fill-rule="nonzero"></path>
							<g stroke-width="1" fill="none" fill-rule="evenodd" transform="translate(20.497881, 106.157658)">
								<path d="M82.8861441,50.1063517 L82.8861441,64.778828 L74.4870233,60.0187953 L74.4952225,46.3293147 C74.496589,43.977781 77.0205614,42.4916664 79.0758157,43.6327983 C81.4276059,44.9375349 82.8861441,47.4162154 82.8861441,50.1063517 Z" fill="#FFFFFF" fill-rule="nonzero"></path>
								<path d="M8.75259534,7.28519712 L8.75259534,21.9576735 L0.353474576,17.1976407 L0.361673729,3.50816011 C0.363040254,1.15662644 2.88701271,-0.329488147 4.94226695,0.811643693 C7.2940572,2.1163803 8.75259534,4.59460512 8.75259534,7.28519712 Z" fill="#FFFFFF" fill-rule="nonzero"></path>
								<path d="M95.2390784,47.8249995 L95.2390784,62.4974758 L103.638199,57.646754 L103.63,44.0475067 C103.628633,41.6959731 101.104661,40.2098585 99.0494068,41.3509903 C96.698072,42.6561827 95.2390784,45.1348632 95.2390784,47.8249995 Z" fill="#FFFFFF" fill-rule="nonzero"></path>
								<path d="M111.713453,38.3094912 L111.713453,52.9819675 L120.112574,48.1317014 L120.104375,34.5324541 C120.103008,32.1809205 117.579036,30.6948059 115.523782,31.8359377 C113.171992,33.1402186 111.713453,35.6193549 111.713453,38.3094912 Z" fill="#FFFFFF" fill-rule="nonzero"></path>
							</g>
							<polygon fill="#DFE6F6" fill-rule="nonzero" points="44.0877542 174.868014 39.9490042 177.147087 64.6220763 191.468656 68.7129979 189.092969"></polygon>
							<polygon fill="#BDCBE8" fill-rule="nonzero" points="39.9490042 177.147087 39.9490042 181.925805 64.6152436 196.173547 64.6220763 191.468656"></polygon>
							<polygon fill="#DFE6F6" fill-rule="nonzero" points="39.9854449 181.977757 35.8421398 184.255919 60.5152119 198.577944 64.6106886 196.202713"></polygon>
							<polygon fill="#BDCBE8" fill-rule="nonzero" points="35.8421398 184.255919 35.8421398 189.073373 60.5083792 203.321115 60.5152119 198.577944"></polygon>
							<polygon fill="#A6BBDA" fill-rule="nonzero" points="64.6220763 191.468656 64.6188877 196.204992 60.5152119 198.577944 60.5083792 203.321115 64.6106886 200.945884 64.6152436 200.907603 64.6152436 200.95272 68.7129979 198.576121 68.7129979 189.092969"></polygon>
							<path d="M158.9966,57.3346241 L158.9966,57.3036349 L158.995689,57.3036349 C159.059004,49.7290533 154.130858,42.159029 144.189386,36.4160005 C124.272278,24.9112587 91.4601801,24.9112587 71.273411,36.4160005 C61.1729661,42.1727007 56.0771928,49.7650555 56.0038559,57.3583218 L56.0038559,80.8590753 C55.9282415,88.4427713 60.8636758,96.0278346 70.8302013,101.784535 C90.7728178,113.30386 123.584915,113.30386 143.746176,101.784535 C153.822023,96.0273788 158.911875,88.4427713 158.9966,80.8590753 L158.997055,80.8590753 L158.997055,80.8522394 C158.9966,80.8495051 158.9966,57.3387257 158.9966,57.3346241 Z" fill="url(#linearGradientSquareIntTransfers-4)" fill-rule="nonzero"></path>
							<path d="M70.8297458,78.2787684 C50.8871292,66.7594435 51.0866419,47.9221094 71.273411,36.4169119 C91.4601801,24.9117144 124.271822,24.9121702 144.189386,36.4169119 C164.106949,47.9216536 163.906981,66.7594435 143.74572,78.2787684 C123.58446,89.7980932 90.7719068,89.7976375 70.8297458,78.2787684 Z" fill="#DFE6F6" fill-rule="nonzero"></path>
							<path d="M152.539767,56.4600906 C152.515169,63.1350738 148.058475,69.8187158 139.195646,74.8786147 C121.56018,84.9573974 92.8535805,84.9573974 75.4076059,74.8786147 C66.8326589,69.9258109 62.5162606,63.4317499 62.4424682,56.9048768 C62.4342691,56.7895787 62.4342691,56.673825 62.4342691,56.5667299 C62.4342691,31.6787539 82.6069174,11.4970352 107.491345,11.4970352 C132.251875,11.4970352 152.350275,31.4896286 152.531568,56.2126327 C152.539767,56.2951187 152.539767,56.3776046 152.539767,56.4600906 Z" fill="url(#linearGradientSquareIntTransfers-5)" fill-rule="nonzero"></path>
							<path d="M107.499544,0.443915521 L105.381886,16.7178045 C105.378697,17.0295194 105.581854,17.3416901 105.991811,17.5782106 C106.811727,18.0521631 108.161398,18.0521631 108.990424,17.5782106 C109.404936,17.3416901 109.614015,17.0295194 109.617659,16.7178045 L109.617659,16.7173488 L107.499544,0.443915521 Z" fill="#7AA5DA" fill-rule="nonzero"></path>
							<polygon fill="#BDCBE8" fill-rule="nonzero" points="107.48679 135.349944 107.48679 144.872743 206.345339 87.7701233 206.345339 78.2541593"></polygon>
						</g>
					</g>
				</g>
			</g>
		</g>
	</svg>