<svg id="ExpressRectangleSvg" width="370px" height="180px" viewBox="0 0 370 180" version="1.1" xmlns="http://www.w3.org/2000/svg" xmlns:xlink="http://www.w3.org/1999/xlink">
		<defs>
			<rect id="pathRectangleExpres-1" x="0" y="0" width="370" height="180" rx="7.5"></rect>
			<linearGradient id="linearGradientRectangleExpres-1" x1="-67.7034651%" y1="55.3202844%" x2="120.474917%" y2="92.680858%">
				<stop stop-color="#93A9D6" offset="0%"></stop>
				<stop stop-color="#E0E7F7" offset="100%"></stop>
			</linearGradient>
			<polygon id="path-4" points="0.516490955 0.3757679 163.214792 0.3757679 163.214792 94.7489487 0.516490955 94.7489487"></polygon>
			<linearGradient id="linearGradientRectangleExpres-2" x1="35.267866%" y1="0%" x2="124.222477%" y2="317.767256%">
				<stop stop-color="#93A9D6" offset="0%"></stop>
				<stop stop-color="#E0E7F7" offset="100%"></stop>
			</linearGradient>
			<polygon id="path-7" points="0.0299866288 0.229780385 138.92455 0.229780385 138.92455 77.7757809 0.0299866288 77.7757809"></polygon>
			<linearGradient id="linearGradientRectangleExpres-3" x1="-52.9808547%" y1="150.130372%" x2="107.133907%" y2="-5.4006669%">
				<stop stop-color="#93A9D6" offset="0%"></stop>
				<stop stop-color="#E0E7F7" offset="100%"></stop>
			</linearGradient>
			<linearGradient id="linearGradientRectangleExpres-4" x1="209.318287%" y1="142.723166%" x2="-348.412181%" y2="-131.291434%">
				<stop stop-color="#6BA3DE" offset="0%"></stop>
				<stop stop-color="#202873" offset="100%"></stop>
			</linearGradient>
			<linearGradient id="linearGradientRectangleExpres-5" x1="209.318287%" y1="142.723166%" x2="-38.3226315%" y2="-24.5620315%">
				<stop stop-color="#6BA3DE" offset="0%"></stop>
				<stop stop-color="#202873" offset="100%"></stop>
			</linearGradient>
			<linearGradient id="linearGradientRectangleExpres-6" x1="61.7447661%" y1="-51.2434399%" x2="82.5612416%" y2="161.992871%">
				<stop stop-color="#93A9D6" offset="0%"></stop>
				<stop stop-color="#E0E7F7" offset="100%"></stop>
			</linearGradient>
			<linearGradient id="linearGradientRectangleExpres-7" x1="209.318287%" y1="142.723166%" x2="21.5145455%" y2="17.8530533%">
				<stop stop-color="#6BA3DE" offset="0%"></stop>
				<stop stop-color="#202873" offset="100%"></stop>
			</linearGradient>
			<linearGradient id="linearGradientRectangleExpres-8" x1="-600.436821%" y1="-742.671795%" x2="83.4416692%" y2="100%">
				<stop stop-color="#93A9D6" offset="0%"></stop>
				<stop stop-color="#E0E7F7" offset="100%"></stop>
			</linearGradient>
			<linearGradient id="linearGradientRectangleExpres-9" x1="0%" y1="26.5720451%" x2="514.680407%" y2="305.839245%">
				<stop stop-color="#93A9D6" offset="0%"></stop>
				<stop stop-color="#E0E7F7" offset="100%"></stop>
			</linearGradient>
			<linearGradient id="linearGradientRectangleExpres-10" x1="0%" y1="26.5720451%" x2="83.4416692%" y2="100%">
				<stop stop-color="#93A9D6" offset="0%"></stop>
				<stop stop-color="#E0E7F7" offset="100%"></stop>
			</linearGradient>
			<linearGradient id="linearGradientRectangleExpres-11" x1="-8.03190784%" y1="21.5891628%" x2="740.310294%" y2="185.709886%">
				<stop stop-color="#93A9D6" offset="0%"></stop>
				<stop stop-color="#E0E7F7" offset="100%"></stop>
			</linearGradient>
			<linearGradient id="linearGradientRectangleExpres-12" x1="-8.03190784%" y1="21.5891628%" x2="294.832798%" y2="142.072319%">
				<stop stop-color="#93A9D6" offset="0%"></stop>
				<stop stop-color="#E0E7F7" offset="100%"></stop>
			</linearGradient>
			<linearGradient id="linearGradientRectangleExpres-13" x1="-1076.62511%" y1="-1048.60675%" x2="286.316867%" y2="231.548179%">
				<stop stop-color="#93A9D6" offset="0%"></stop>
				<stop stop-color="#E0E7F7" offset="100%"></stop>
			</linearGradient>
			<linearGradient id="linearGradientRectangleExpres-14" x1="-32.6048445%" y1="-27.5657271%" x2="286.316867%" y2="231.548179%">
				<stop stop-color="#93A9D6" offset="0%"></stop>
				<stop stop-color="#E0E7F7" offset="100%"></stop>
			</linearGradient>
			<linearGradient id="linearGradientRectangleExpres-15" x1="-1261.09838%" y1="665.979946%" x2="70.1520426%" y2="34.8944636%">
				<stop stop-color="#93A9D6" offset="0%"></stop>
				<stop stop-color="#E0E7F7" offset="100%"></stop>
			</linearGradient>
			<linearGradient id="linearGradientRectangleExpres-16" x1="-52.9808547%" y1="150.130372%" x2="70.1520426%" y2="34.8944636%">
				<stop stop-color="#93A9D6" offset="0%"></stop>
				<stop stop-color="#E0E7F7" offset="100%"></stop>
			</linearGradient>
			<linearGradient id="linearGradientRectangleExpres-17" x1="126.819482%" y1="-165.021509%" x2="62.5233293%" y2="100%">
				<stop stop-color="#93A9D6" offset="0%"></stop>
				<stop stop-color="#E0E7F7" offset="100%"></stop>
			</linearGradient>
			<linearGradient id="linearGradientRectangleExpres-18" x1="-8.03190784%" y1="21.5891628%" x2="2002.2529%" y2="258.399421%">
				<stop stop-color="#93A9D6" offset="0%"></stop>
				<stop stop-color="#E0E7F7" offset="100%"></stop>
			</linearGradient>
			<linearGradient id="linearGradientRectangleExpres-19" x1="100%" y1="0%" x2="174.482611%" y2="160.687911%">
				<stop stop-color="#93A9D6" offset="0%"></stop>
				<stop stop-color="#E0E7F7" offset="100%"></stop>
			</linearGradient>
			<linearGradient id="linearGradientRectangleExpres-20" x1="50%" y1="-20.8597636%" x2="0%" y2="108.016352%">
				<stop stop-color="#93A9D6" offset="0%"></stop>
				<stop stop-color="#E0E7F7" offset="100%"></stop>
			</linearGradient>
			<polygon id="pathRectangleExpres-27" points="0 0.0633058625 27.7986937 0.0633058625 27.7986937 27.8581823 0 27.8581823"></polygon>
		</defs>
		<g stroke="none" stroke-width="1" fill="none" fill-rule="evenodd">
			<g transform="translate(-535.000000, -810.000000)">
				<g transform="translate(535.000000, 810.000000)">
					<rect x="0" y="0" width="370" height="180"></rect>
					<g>
						<mask id="maskRectangleExpres-2" fill="white">
							<use xlink:href="#pathRectangleExpres-1"></use>
						</mask>
						<use id="MaskExpressRectangle" fill="#FFFFFF" xlink:href="#pathRectangleExpres-1"></use>
						<polygon fill="url(#linearGradientRectangleExpres-1)" mask="url(#maskRectangleExpres-2)" points="109 200 390 41 390 200"></polygon>
						<g mask="url(#maskRectangleExpres-2)">
							<g transform="translate(216.118519, 4.066667)">
								<g>
									<g transform="translate(5.082479, 68.420656)">
										<mask id="mask-5" fill="white">
											<use xlink:href="#path-4"></use>
										</mask>
										<g></g>
										<path d="M66.3453879,90.8458027 L156.485985,38.5597017 C164.620211,33.8415444 165.503997,26.7041685 158.459116,22.6180492 L124.869574,3.13437465 C117.825257,-0.951744679 105.52001,-0.439419526 97.3863488,4.27873771 L7.24575212,56.5648387 C-0.8890386,61.2835633 -1.77226058,68.4209392 5.27262065,72.5070585 L38.8615979,91.9907331 C45.9064791,96.0768524 58.2111619,95.5639599 66.3453879,90.8458027" fill="url(#linearGradientRectangleExpres-2)" mask="url(#mask-5)"></path>
									</g>
									<g transform="translate(24.282957, 0.337579)">
										<mask id="mask-8" fill="white">
											<use xlink:href="#path-7"></use>
										</mask>
										<g></g>
										<path d="M0.0299866288,47.1372616 L79.0845661,1.08473362 C81.3541756,-0.237212787 83.9287338,0.0612180333 85.8120748,1.38032765 L85.8256281,1.37295198 L138.92455,32.0114713 L53.1289083,77.7757809 L0.0299866288,47.1372616 Z" fill="url(#linearGradientRectangleExpres-3)" mask="url(#mask-8)"></path>
									</g>
									<polygon fill="#344B89" points="52.1027557 63.509653 57.5675506 66.6630341 139.904282 18.9027557 134.438358 15.7493745"></polygon>
									<polygon fill="#344B89" points="43.9143166 58.7848576 49.3683818 61.9319979 131.706243 14.1728541 126.242013 11.0200403"></polygon>
									<path d="M142.777239,82.0770995 C145.371562,80.5724635 147.900378,79.8093657 150.295355,79.8093657 C156.442896,79.8093657 160.414572,84.6750362 160.414572,92.2044572 C160.414572,92.4472868 160.391983,92.6952227 160.384642,92.9397544 L142.243014,82.4175149 C142.42203,82.3063125 142.597093,82.1820609 142.777239,82.0770995" fill="url(#linearGradientRectangleExpres-4)"></path>
									<path d="M76.7149448,120.396241 C79.3092682,118.892172 81.8380841,118.129074 84.2330614,118.129074 C90.3806026,118.129074 94.3522779,122.994178 94.3522779,130.523599 C94.3522779,130.766428 94.3296891,131.014932 94.3223478,131.258896 L76.1807197,120.736656 C76.359736,120.626021 76.5347991,120.501202 76.7149448,120.396241" fill="url(#linearGradientRectangleExpres-4)"></path>
									<path d="M67.7428438,118.381095 C71.5552681,116.170097 74.9961067,115.99762 77.451509,117.501122 L86.970993,123.022659 C84.5765805,121.920848 81.4051133,122.243108 77.9264385,124.261204 C70.4664881,128.587883 64.419467,139.067571 64.419467,147.667598 C64.419467,151.771306 65.7985131,154.701715 68.0483573,156.177983 L68.0364982,156.198408 L58.4836957,150.655311 C58.257243,150.540704 58.0370022,150.414183 57.8252323,150.273478 L57.8252323,150.272911 C55.5985416,148.7887 54.2358723,145.867368 54.2358723,141.78749 C54.2358723,133.187462 60.2834582,122.707775 67.7428438,118.381095" fill="url(#linearGradientRectangleExpres-5)"></path>
									<path d="M91.4335229,131.997767 C91.4335229,123.398307 85.3865018,119.934014 77.9265514,124.26126 C70.466601,128.58794 64.4195799,139.067628 64.4195799,147.667655 C64.4195799,156.267682 70.466601,159.731409 77.9265514,155.404729 C85.3865018,151.077482 91.4335229,140.597795 91.4335229,131.997767" fill="#344B89"></path>
									<path d="M78.489069,148.465532 C78.7160864,148.255042 78.9476216,148.06214 79.1757684,147.866968 C79.3914914,147.654209 79.6117322,147.453363 79.8167255,147.235498 C80.2397008,146.815652 80.6378283,146.375949 81.0060257,145.913551 C81.7395969,144.986487 82.4223433,144.024246 83.0034402,142.998461 C83.6020433,141.982888 84.0961732,140.911147 84.5332665,139.811038 C84.7506837,139.259565 84.9308293,138.693908 85.0838684,138.117472 C85.1708353,137.830955 85.2323898,137.538198 85.3091917,137.244873 C85.3639695,136.949279 85.4142296,136.650849 85.481996,136.348446 L85.5390327,136.348446 C85.538468,137.568835 85.3176625,138.781849 84.9607595,139.945502 C84.6021623,141.11029 84.1057735,142.231391 83.5020879,143.289516 C82.8876726,144.3414 82.1642663,145.329739 81.3358222,146.220492 C80.5068133,147.109544 79.5699429,147.905549 78.5184344,148.516027 L78.489069,148.465532 Z" fill="#353836"></path>
									<path d="M85.5105708,136.348219 C85.5105708,131.887076 82.3735515,130.089682 78.5035258,132.334722 C74.6335001,134.579194 71.4970455,140.015628 71.4970455,144.476771 C71.4970455,148.937915 74.6335001,150.735308 78.5035258,148.490269 C82.3735515,146.245797 85.5105708,140.809363 85.5105708,136.348219" fill="url(#linearGradientRectangleExpres-6)"></path>
									<path d="M78.5034129,148.490496 C77.8731854,148.869491 77.2079453,149.209907 76.4839744,149.397703 C75.7622623,149.578123 74.988596,149.629185 74.246554,149.434581 C73.5056414,149.241112 72.8358835,148.779281 72.3654718,148.168803 C71.8905424,147.557758 71.5974527,146.828134 71.427472,146.084894 C71.1247821,144.585364 71.2557972,143.039878 71.6223004,141.58517 C71.9882389,140.12422 72.5670769,138.72568 73.3057305,137.419053 C74.0686672,136.127744 74.9902901,134.928914 76.0700346,133.884406 C77.1446967,132.8416 78.4124929,131.95879 79.8525288,131.466322 C80.5781939,131.242783 81.3496013,131.124205 82.1147969,131.220656 C82.8766041,131.312001 83.6175166,131.647877 84.165295,132.186301 C84.7147675,132.725292 85.0671527,133.420874 85.2766638,134.138016 C85.4793983,134.861966 85.5234464,135.610312 85.5104579,136.348446 C85.4607625,135.61088 85.3636307,134.876717 85.1309661,134.183972 C84.8864423,133.49917 84.50808,132.860323 83.9738549,132.395089 C83.4481006,131.921912 82.7726956,131.642771 82.074137,131.584333 C81.3750137,131.521923 80.6662902,131.655253 79.9959677,131.88787 C78.6716994,132.414379 77.4541632,133.23705 76.4348437,134.263969 C75.4070534,135.281811 74.5294786,136.453408 73.8043782,137.710108 C73.0758895,138.964539 72.4987457,140.312583 72.1305483,141.714527 C71.7516213,143.1125 71.6443245,144.583662 71.8600475,145.996953 C71.9955803,146.696507 72.2423629,147.377337 72.6546084,147.948101 C73.0623362,148.519431 73.6507744,148.954028 74.3256147,149.163383 C74.9981962,149.383519 75.738544,149.382951 76.4495264,149.248487 C77.1633324,149.102109 77.8426905,148.815592 78.5034129,148.490496" fill="url(#linearGradientRectangleExpres-7)"></path>
									<path d="M76.1894164,144.692935 C76.9777655,144.918744 77.7282783,144.596484 78.3590704,144.199333 C78.9881685,143.773246 79.5500648,143.241631 80.0193471,142.63172 C80.5021826,142.032589 80.9065221,141.367077 81.2368832,140.662984 C81.5655503,139.958324 81.8191095,139.215084 81.9456068,138.416243 C82.0495152,139.219056 81.9382654,140.061584 81.6621174,140.836029 C81.400652,141.618984 80.9895359,142.34804 80.4795938,143.000503 C79.9656987,143.647293 79.3303887,144.214652 78.583829,144.598754 C78.2111138,144.787684 77.803386,144.922148 77.3832344,144.961863 C76.9653416,144.987962 76.5265542,144.923283 76.1894164,144.692935" fill="url(#linearGradientRectangleExpres-8)"></path>
									<path d="M81.9457762,138.416016 C81.8706684,137.800999 81.7266649,137.167259 81.3274079,136.734931 C80.9569516,136.278775 80.3696428,136.12502 79.816782,136.21523 C79.2610976,136.315086 78.7234842,136.578907 78.2547667,136.939748 C77.7809666,137.293212 77.3551678,137.720434 76.9869704,138.194178 C76.2421048,139.133725 75.6796437,140.238373 75.3967191,141.4077 C75.265704,141.992079 75.195114,142.600856 75.2837751,143.193178 C75.3594475,143.782097 75.6457605,144.365342 76.1895859,144.692708 C75.5791236,144.489594 75.1753488,143.874009 75.0019798,143.254453 C74.8336933,142.620146 74.8455524,141.956903 74.9466373,141.318624 C75.1572778,140.037528 75.7344216,138.843805 76.5272884,137.82653 C76.933322,137.32385 77.3958276,136.860885 77.9328763,136.485861 C78.4676661,136.117077 79.084905,135.820349 79.7659572,135.758506 C80.1042245,135.736379 80.4566097,135.770421 80.7779354,135.907722 C81.0981316,136.045023 81.3669382,136.282746 81.5544253,136.559617 C81.9288346,137.124707 81.9994246,137.798162 81.9457762,138.416016" fill="url(#linearGradientRectangleExpres-9)"></path>
									<path d="M86.9709366,123.022773 C85.145197,122.250597 83.0896164,122.37031 81.2542766,122.957526 C80.3264418,123.240638 79.434749,123.637222 78.583716,124.105861 C78.1567878,124.336209 77.7479305,124.600031 77.3441558,124.871795 L76.7353877,125.272351 C76.5360415,125.410787 76.3491192,125.567945 76.155985,125.714891 C73.0494606,128.068296 70.5618693,131.176288 68.6056794,134.542429 C66.682808,137.926158 65.2337367,141.641225 64.7757488,145.523095 C64.6932997,146.004783 64.6791817,146.492711 64.6515104,146.978938 L64.6125447,147.709696 L64.6193214,148.440455 C64.6492515,149.41461 64.7678427,150.386496 65.0005073,151.331149 C65.4364711,153.215915 66.4252957,155.037705 68.0483009,156.178096 C66.3467997,155.147772 65.2619727,153.306125 64.7266182,151.403771 C64.4583762,150.443232 64.3132432,149.451488 64.255077,148.457475 L64.2285352,147.710264 L64.2471709,146.964754 C64.2629831,146.46718 64.2641125,145.967904 64.3347025,145.474869 C64.5114599,143.490248 64.9892129,141.541937 65.6482411,139.669652 C66.3061398,137.795666 67.1311957,135.981819 68.1070317,134.251941 C69.1161863,132.542489 70.2636972,130.917005 71.5501292,129.406696 C72.8326082,127.894684 74.2805501,126.5143 75.8933902,125.358022 C76.0944305,125.213346 76.2892589,125.059024 76.4959464,124.922858 L77.1289975,124.530813 C77.5474549,124.264154 77.9709949,124.007708 78.4148648,123.783034 C79.2958279,123.330281 80.2168861,122.945044 81.1757806,122.685761 C83.0754984,122.174571 85.1943276,122.126345 86.9709366,123.022773" fill="url(#linearGradientRectangleExpres-7)"></path>
									<path d="M133.797457,79.8580451 C137.609882,77.6470472 141.050156,77.47457 143.506123,78.9780713 L153.025607,84.4996088 C150.631194,83.3983651 147.459727,83.7200576 143.981052,85.7381535 C136.521102,90.0654004 130.474081,100.544521 130.474081,109.144548 C130.474081,113.248255 131.853127,116.178665 134.102971,117.654933 L134.090547,117.675358 L124.538309,112.13226 C124.311857,112.017654 124.091616,111.891133 123.879846,111.74986 C121.653155,110.265649 120.290486,107.344318 120.290486,103.26444 C120.290486,94.6644122 126.337507,84.1847246 133.797457,79.8580451" fill="url(#linearGradientRectangleExpres-5)"></path>
									<path d="M157.488137,93.4749441 C157.488137,84.8749168 151.440551,81.4111903 143.981165,85.7378698 C136.521215,90.0651167 130.474194,100.544237 130.474194,109.144832 C130.474194,117.744859 136.521215,121.208586 143.981165,116.881339 C151.440551,112.554659 157.488137,102.074971 157.488137,93.4749441" fill="#344B89"></path>
									<path d="M144.543683,109.942765 C144.770135,109.732275 145.0028,109.539373 145.230382,109.344202 C145.44554,109.131442 145.666346,108.930597 145.871339,108.712731 C146.29375,108.292885 146.691877,107.853182 147.060639,107.390217 C147.794211,106.46372 148.476957,105.500912 149.058054,104.475694 C149.656657,103.460122 150.150787,102.387813 150.58788,101.288272 C150.805297,100.736799 150.985443,100.171142 151.138482,99.5941376 C151.225449,99.3076213 151.287003,99.0154315 151.363805,98.7215395 C151.418583,98.4265129 151.468843,98.1275147 151.53661,97.8251123 L151.593646,97.8251123 C151.593082,99.0460689 151.371711,100.258515 151.015373,101.422736 C150.656211,102.587524 150.160387,103.708625 149.556701,104.766182 C148.942286,105.818633 148.21888,106.806405 147.390436,107.697726 C146.561427,108.586777 145.624557,109.382215 144.572483,109.992693 L144.543683,109.942765 Z" fill="#353836"></path>
									<path d="M151.565184,97.8251691 C151.565184,93.3640255 148.4276,91.5666322 144.558139,93.8116717 C140.688114,96.0561438 137.551094,101.492577 137.551094,105.954288 C137.551094,110.415432 140.688114,112.212258 144.558139,109.967786 C148.4276,107.722746 151.565184,102.28688 151.565184,97.8251691" fill="url(#linearGradientRectangleExpres-6)"></path>
									<path d="M144.558026,109.967672 C143.927799,110.346101 143.262559,110.686516 142.538023,110.874312 C141.816876,111.0553 141.04321,111.105794 140.301168,110.911758 C139.560255,110.718288 138.889932,110.255891 138.420085,109.645412 C137.945156,109.034934 137.652066,108.305311 137.481521,107.56207 C137.179396,106.062541 137.310411,104.517055 137.676914,103.062346 C138.042853,101.601397 138.62169,100.202857 139.360344,98.8962293 C140.122716,97.604353 141.044904,96.4060908 142.124648,95.3610156 C143.19931,94.3187771 144.466542,93.4359666 145.907142,92.943499 C146.632807,92.7193922 147.404215,92.6008142 148.16941,92.6972652 C148.931218,92.7891773 149.67213,93.1250539 150.219909,93.6634775 C150.769381,94.2024686 151.121766,94.8980507 151.331277,95.614625 C151.534012,96.3391425 151.57806,97.0869216 151.565071,97.8250556 C151.515376,97.0874889 151.418244,96.3538938 151.18558,95.6611485 C150.941056,94.9763462 150.562694,94.3369326 150.028468,93.8716983 C149.50215,93.3990882 148.826744,93.1193803 148.128751,93.0615097 C147.429063,92.9985328 146.720339,93.1324295 146.050581,93.3650467 C144.725748,93.8915558 143.508777,94.713659 142.489457,95.7405787 C141.461667,96.7584207 140.584092,97.9305844 139.858992,99.1872845 C139.129938,100.441715 138.553359,101.789193 138.185162,103.191137 C137.80567,104.589677 137.698938,106.060838 137.914661,107.47413 C138.050194,108.173116 138.296976,108.854514 138.709222,109.42471 C139.11695,109.996608 139.704823,110.431205 140.380228,110.64056 C141.05281,110.860695 141.792593,110.860128 142.50414,110.725097 C143.217946,110.579285 143.897304,110.292769 144.558026,109.967672" fill="url(#linearGradientRectangleExpres-7)"></path>
									<path d="M142.243409,106.169601 C143.032323,106.39541 143.782835,106.073718 144.413628,105.675999 C145.042726,105.25048 145.604622,104.718864 146.073904,104.108953 C146.556175,103.509255 146.961079,102.843743 147.290876,102.140218 C147.620107,101.435558 147.873667,100.692318 148.000164,99.8929089 C148.104072,100.696289 147.992823,101.53825 147.71611,102.313262 C147.455209,103.096218 147.044093,103.825274 146.533586,104.477169 C146.020256,105.124526 145.384946,105.691885 144.638386,106.07542 C144.265671,106.264917 143.857943,106.399382 143.437227,106.438529 C143.019899,106.465195 142.581111,106.400516 142.243409,106.169601" fill="url(#linearGradientRectangleExpres-8)"></path>
									<path d="M148.00039,99.8929089 C147.925282,99.2784591 147.781278,98.6441518 147.381457,98.2123916 C147.011565,97.756235 146.424256,97.601346 145.871396,97.6921234 C145.315711,97.7919786 144.778098,98.0558005 144.30938,98.4166408 C143.83558,98.7706728 143.409781,99.1978941 143.041584,99.6710715 C142.296154,100.610618 141.734257,101.715266 141.451333,102.884593 C141.320318,103.468972 141.249163,104.077749 141.338389,104.670071 C141.414061,105.25899 141.699809,105.842235 142.243635,106.169601 C141.633737,105.966487 141.229962,105.350902 141.056593,104.731346 C140.888307,104.097606 140.900166,103.433796 141.001251,102.796085 C141.211891,101.514421 141.789035,100.320698 142.581902,99.3034229 C142.987936,98.8013102 143.449876,98.3377779 143.986925,97.9627536 C144.52228,97.5939703 145.138954,97.2966742 145.820571,97.2359668 C146.158838,97.2138398 146.511223,97.247314 146.832549,97.3846148 C147.152745,97.5219157 147.421552,97.7602065 147.609039,98.0365103 C147.983448,98.6015998 148.054038,99.2750549 148.00039,99.8929089" fill="url(#linearGradientRectangleExpres-9)"></path>
									<path d="M153.025494,84.4997223 C151.199754,83.7281141 149.144174,83.8472595 147.308834,84.434476 C146.380999,84.7175882 145.489306,85.1141721 144.638273,85.5828106 C144.211345,85.8137257 143.802488,86.0769803 143.398713,86.3493126 L142.789945,86.7493007 C142.590034,86.8877362 142.403676,87.045462 142.210542,87.192408 C139.104018,89.5452457 136.616426,92.6526708 134.660237,96.0193789 C132.737365,99.4031079 131.288294,103.118174 130.830306,107.000045 C130.747857,107.4823 130.733739,107.969094 130.706068,108.455888 L130.667102,109.186646 L130.673878,109.917404 C130.703809,110.89156 130.8224,111.863446 131.055064,112.808098 C131.491028,114.693432 132.479288,116.515222 134.102858,117.654479 C132.400792,116.624722 131.31653,114.783075 130.781175,112.88072 C130.512369,111.920182 130.3678,110.927871 130.309634,109.933858 L130.283092,109.187781 L130.301728,108.441704 C130.316975,107.94413 130.31867,107.444287 130.38926,106.951819 C130.566017,104.967197 131.043205,103.018887 131.702234,101.146602 C132.360697,99.2726153 133.185753,97.459336 134.161589,95.7294585 C135.170743,94.0194385 136.318254,92.3939551 137.604686,90.8842129 C138.887165,89.3722012 140.335107,87.9912494 141.947947,86.8349719 C142.148988,86.6902953 142.343251,86.5359737 142.550504,86.3998075 L143.183555,86.0077625 C143.602012,85.7411038 144.025552,85.4846575 144.468857,85.2605507 C145.350385,84.8072309 146.271443,84.4219941 147.230338,84.1627111 C149.129491,83.6515207 151.248885,83.6032951 153.025494,84.4997223" fill="url(#linearGradientRectangleExpres-7)"></path>
									<path d="M53.099317,127.255554 L67.9085327,114.109279 L77.4122045,78.1131893 L156.466784,32.0606613 C160.642323,29.6283934 165.87163,32.6535515 165.873889,37.5022013 L165.886877,61.8333909 L165.888007,61.8328235 L165.886877,61.8333909 L53.099317,127.255554 Z" fill="url(#linearGradientRectangleExpres-10)"></path>
									<path d="M165.887781,63.7609363 L165.887781,89.7482467 L160.384585,92.9402083 C160.387409,92.7966665 160.402091,92.6508552 160.402091,92.5084481 C160.402091,85.0153382 156.239541,79.9800273 150.043434,79.9800273 C147.634338,79.9800273 145.104393,80.7391536 142.523623,82.2358465 C134.133014,87.1037865 127.560239,98.4986242 127.560239,108.178336 C127.560239,109.453759 127.68956,110.650886 127.92053,111.770853 L94.3219525,131.259066 C94.0542752,124.180128 89.9769973,119.469347 83.9892718,119.469347 C81.5801765,119.469347 79.0502312,120.228473 76.4694611,121.725733 C68.0782875,126.593106 61.5049474,137.988511 61.5049474,147.667655 C61.5049474,148.545927 61.5670666,149.38732 61.6788811,150.194104 L53.0990911,155.170977 L53.0990911,129.183667 L165.887781,63.7609363 Z" fill="url(#linearGradientRectangleExpres-10)"></path>
									<path d="M62.6658986,140.207282 C61.91708,142.715576 61.5048344,145.245429 61.5048344,147.667485 C61.5048344,148.545756 61.5675184,149.387717 61.6787682,150.194502 L53.0995429,155.170807 L53.0995429,145.762861 L62.6658986,140.207282 Z" fill="url(#linearGradientRectangleExpres-4)"></path>
									<polygon fill="url(#linearGradientRectangleExpres-4)" points="53.099317 127.255554 53.099317 129.18344 165.888007 63.7607093 165.888007 61.8328235"></polygon>
									<polygon fill="url(#linearGradientRectangleExpres-11)" points="78.7626193 108.325168 71.1710892 112.728441 78.7626193 82.2084998"></polygon>
									<polygon fill="url(#linearGradientRectangleExpres-12)" points="105.57524 65.5261602 80.0690989 80.3206128 80.0690989 107.549305 105.57524 92.7548521"></polygon>
									<polygon fill="url(#linearGradientRectangleExpres-3)" points="0.000169415982 124.606839 53.0990911 155.244791 53.0990911 129.18883 0.000169415982 98.5503106"></polygon>
									<polygon fill="url(#linearGradientRectangleExpres-4)" points="0.000169415982 115.124625 53.0990911 145.762577 53.0990911 155.244848 0.000169415982 124.606896"></polygon>
									<path d="M46.6105155,147.228349 C46.6105155,148.461787 47.4773606,149.964721 48.5475049,150.585412 C49.6170844,151.206103 50.4844943,150.709664 50.4844943,149.475658 C50.4844943,148.242219 49.6170844,146.739853 48.5475049,146.119162 C47.4773606,145.498471 46.6105155,145.994911 46.6105155,147.228349" fill="url(#linearGradientRectangleExpres-13)"></path>
									<path d="M2.57726886,121.68721 C2.57726886,122.920648 3.44411396,124.423582 4.51425825,125.044273 C5.58383781,125.664396 6.45124764,125.167957 6.45124764,123.934518 C6.45124764,122.70108 5.58383781,121.198146 4.51425825,120.577455 C3.44411396,119.956765 2.57726886,120.453771 2.57726886,121.68721" fill="url(#linearGradientRectangleExpres-13)"></path>
									<path d="M21.3321263,135.375312 L31.7297498,141.406338 C32.3436004,141.76264 32.8405539,141.384778 32.8405539,140.563243 L32.8405539,137.902896 C32.8405539,137.081361 32.3436004,136.126495 31.7297498,135.770761 L21.3321263,129.739168 C20.7182757,129.383434 20.2213222,129.761295 20.2213222,130.582831 L20.2213222,133.243177 C20.2213222,134.064713 20.7182757,135.019578 21.3321263,135.375312" fill="#F7F1E7"></path>
									<path d="M39.2360637,129.957942 C39.2360637,133.623081 41.8134455,138.089898 44.9928187,139.933815 C48.1727567,141.778299 50.7501385,140.302031 50.7501385,136.636892 C50.7501385,132.971185 48.1727567,128.504368 44.9928187,126.659884 C41.8134455,124.815967 39.2360637,126.292235 39.2360637,129.957942" fill="url(#linearGradientRectangleExpres-14)"></path>
									<path d="M40.1885203,130.510663 C40.1885203,133.569862 42.3401033,137.296844 44.9931576,138.836088 C47.6467766,140.375333 49.7977948,139.14303 49.7977948,136.08383 C49.7977948,133.025198 47.6467766,129.297649 44.9931576,127.758404 C42.3401033,126.219727 40.1885203,127.451463 40.1885203,130.510663" fill="url(#linearGradientRectangleExpres-15)"></path>
									<path d="M1.74069274,108.208803 C1.74069274,111.873942 4.31807454,116.340759 7.4974478,118.185243 C10.6768211,120.02916 13.2547676,118.552892 13.2547676,114.887185 C13.2547676,111.222046 10.6768211,106.755229 7.4974478,104.911312 C4.31807454,103.066828 1.74069274,104.543096 1.74069274,108.208803" fill="url(#linearGradientRectangleExpres-14)"></path>
									<path d="M2.69309292,108.76124 C2.69309292,111.82044 4.84467588,115.547988 7.49773016,117.086666 C10.1507844,118.625911 12.3023674,117.393607 12.3023674,114.334975 C12.3023674,111.275775 10.1507844,107.548227 7.49773016,106.008982 C4.84467588,104.470304 2.69309292,105.702041 2.69309292,108.76124" fill="url(#linearGradientRectangleExpres-15)"></path>
									<path d="M17.8125657,122.94964 L34.7264926,132.760411 C35.7853425,133.374861 36.6442815,132.722966 36.6442815,131.304001 L36.6442815,125.604313 C36.6442815,124.185915 35.7853425,122.537737 34.7264926,121.923855 L17.8125657,112.112516 C16.7531511,111.498634 15.8947768,112.150529 15.8947768,113.568927 L15.8947768,119.268615 C15.8947768,120.68758 16.7531511,122.33519 17.8125657,122.94964" fill="url(#linearGradientRectangleExpres-14)"></path>
									<path d="M35.607851,124.125889 L16.9314332,113.292736 C17.056801,113.028914 17.3470671,112.960264 17.6853343,113.15657 L34.8539499,123.115422 C35.1916524,123.311161 35.4819185,123.716255 35.607851,124.125889 Z M35.6746009,124.738126 L35.6746009,125.311726 L16.8637798,114.400845 L16.8637798,113.827245 L35.6746009,124.738126 Z M35.6746009,125.885042 L35.6746009,126.458642 L16.8637798,115.547761 L16.8637798,114.974161 L35.6746009,125.885042 Z M35.6746009,127.031958 L35.6746009,127.605558 L16.8637798,116.694678 L16.8637798,116.121078 L35.6746009,127.031958 Z M35.6746009,128.178874 L35.6746009,128.752474 L16.8637798,117.841594 L16.8637798,117.267994 L35.6746009,128.178874 Z M35.6746009,129.32579 L35.6746009,129.89939 L16.8637798,118.98851 L16.8637798,118.41491 L35.6746009,129.32579 Z M35.6746009,130.472707 L35.6746009,131.045739 L16.8637798,120.135426 L16.8637798,119.561826 L35.6746009,130.472707 Z M16.9313203,120.747493 L35.6077381,131.580645 C35.4823703,131.845034 35.1915395,131.913118 34.853837,131.716811 L17.6852214,121.757959 C17.3469541,121.56222 17.0572528,121.157126 16.9313203,120.747493 Z" fill="url(#linearGradientRectangleExpres-7)"></path>
									<polygon fill="url(#linearGradientRectangleExpres-4)" points="0.000169415982 96.6173186 0.000169415982 98.5503106 53.0990911 129.18883 53.0990911 127.255271"></polygon>
									<polygon fill="url(#linearGradientRectangleExpres-16)" points="67.9083068 114.109279 14.8093851 83.4713274 0.000169415982 96.6170349 53.0990911 127.255554"></polygon>
									<polygon fill="url(#linearGradientRectangleExpres-17)" points="24.312944 47.4748402 14.8092721 83.4709303 67.9081938 114.10945 77.4118657 78.1133595"></polygon>
									<polygon fill="url(#linearGradientRectangleExpres-14)" points="73.8604549 79.440015 25.9021788 51.7676484 18.3609088 82.1446152 66.3191849 109.816414"></polygon>
								</g>
								<g transform="translate(116.162478, 8.181176)">
									<polygon fill="url(#linearGradientRectangleExpres-12)" points="20.2571144 117.187644 13.2937876 113.167464 6.32943137 117.187644 13.2937876 121.208338"></polygon>
									<polygon fill="url(#linearGradientRectangleExpres-18)" points="13.2937361 121.208544 13.2937361 150.223731 20.2570629 146.204066 20.2570629 117.18785"></polygon>
									<polygon fill="url(#linearGradientRectangleExpres-12)" points="6.32953431 146.204015 13.2938905 150.22368 13.2938905 121.208493 6.32953431 117.187798"></polygon>
									<g transform="translate(0.000000, 0.451376)">
										<path d="M16.0713973,27.2123081 L10.9132244,27.2123081 L10.913244,115.993376 C10.9106703,116.376814 11.1618607,116.759737 11.665271,117.050533 C12.6695177,117.62955 14.3079173,117.62955 15.3131935,117.050533 C15.8140301,116.761281 16.0636763,116.378873 16.0636763,115.996979 L16.0713973,115.996979 L16.0713973,27.2123081 Z" fill="url(#linearGradientRectangleExpres-19)"></path>
										<path d="M10.9135014,27.2123081 L10.9135014,115.993376 C10.9135014,116.039698 10.9289434,116.085504 10.9361497,116.131826 C11.939367,116.534307 13.3337825,116.479236 14.2268466,115.964554 C14.7297421,115.674273 14.9778441,115.293409 14.9778441,114.911515 L14.9855651,114.911515 L14.9855651,27.2123081 L10.9135014,27.2123081 Z" fill="url(#linearGradientRectangleExpres-20)"></path>
										<g>
											<mask id="maskRectangleExpres-28" fill="white">
												<use xlink:href="#pathRectangleExpres-27"></use>
											</mask>
											<g></g>
											<path d="M27.7986937,13.9607441 C27.7986937,21.6367086 21.575555,27.8581823 13.8988064,27.8581823 C6.22360198,27.8581823 -5.14734354e-05,21.6367086 -5.14734354e-05,13.9607441 C-5.14734354e-05,6.28529426 6.22360198,0.0633058625 13.8988064,0.0633058625 C21.575555,0.0633058625 27.7986937,6.28529426 27.7986937,13.9607441" fill="url(#linearGradientRectangleExpres-16)" mask="url(#maskRectangleExpres-28)"></path>
										</g>
										<path d="M13.8988579,0.0633058625 C6.22365345,0.0633058625 0,6.28529426 0,13.9607441 C0,16.6864989 0.785999406,19.2254243 2.14335398,21.3701034 C4.64084522,23.7690353 8.02985641,25.2451427 11.7652838,25.2451427 C19.4425472,25.2451427 25.6651712,19.0231544 25.6651712,11.3471898 C25.6651712,8.62246435 24.8781423,6.0830243 23.5233614,3.93783052 C21.0248407,1.53992797 17.6348,0.0633058625 13.8988579,0.0633058625" fill="#DEE5F6"></path>
										<path d="M15.4877914,8.92200916 C15.4877914,11.7048937 13.2311959,13.9607441 10.4475123,13.9607441 C7.66485826,13.9607441 5.40877745,11.7048937 5.40877745,8.92200916 C5.40877745,6.13912462 7.66485826,3.88327425 10.4475123,3.88327425 C13.2311959,3.88327425 15.4877914,6.13912462 15.4877914,8.92200916" fill="#FFFFFF" opacity="0.5"></path>
										<path d="M3.4498528,25.4873005 C9.53452796,30.9177083 18.2633937,30.9177083 24.3490983,25.4878152 C25.5901229,24.3812493 23.7633306,22.566996 22.5289975,23.668415 C17.5257793,28.132765 10.2726571,28.132765 5.26943885,23.6679003 C4.03562053,22.5664813 2.20882819,24.38022 3.4498528,25.4873005" fill="url(#linearGradientRectangleExpres-12)"></path>
									</g>
								</g>
							</g>
						</g>
					</g>
				</g>
			</g>
		</g>
	</svg>