<svg id="DokumentyRectangleSvg" width="370" height="180" viewBox="0 0 370 180" fill="none" xmlns="http://www.w3.org/2000/svg" xmlns:xlink="http://www.w3.org/1999/xlink">
        <defs>
        <rect id="pathSquareStandart-1" width="370" height="180" rx="10"></rect>
            <linearGradient id="linearGradientSquareDokumenty-3" x1="-186.06" y1="142.289" x2="104.261" y2="716.795" gradientUnits="userSpaceOnUse">
            <stop stop-color="#93A9D6" offset="0%"></stop>
            <stop offset="100%" stop-color="#E0E7F7"></stop>
            </linearGradient>
            <linearGradient id="linearGradientRectangleStandart-4" x1="341.856" y1="40.4407" x2="263.939" y2="-0.591975" gradientUnits="userSpaceOnUse">
            <stop stop-color="#F1F4FB" offset="0%"></stop>
            <stop offset="100%" stop-color="#CED6EA"></stop>
            </linearGradient>
            <linearGradient id="linearGradientRectangleStandart-5" x1="347.295" y1="43.8447" x2="269.378" y2="2.81209" gradientUnits="userSpaceOnUse">
            <stop stop-color="#F1F4FB" offset="0%"></stop>
            <stop offset="100%" stop-color="#CED6EA"></stop>
            </linearGradient>
            <linearGradient id="linearGradientRectangleStandart-6" x1="352.734" y1="47.2493" x2="274.817" y2="6.21663" gradientUnits="userSpaceOnUse">
            <stop stop-color="#F1F4FB" offset="0%"></stop>
            <stop offset="100%" stop-color="#CED6EA"></stop>
            </linearGradient>
        </defs>
        <g stroke="none" stroke-width="1" fill="none" fill-rule="evenodd">
            <g transform="translate(-102.000000, -2862.000000)">
                <g transform="translate(102.000000, 2862.000000)">
                    <mask id="maskSquareStandart-2" fill="white">
                        <use xlink:href="#pathSquareStandart-1"></use>
                    </mask>
                    <use id="MaskStandartRectangle" fill="#FFFFFF" xlink:href="#pathSquareStandart-1"></use>
                    <g mask="url(#maskSquareStandart-2)">
                        <path fill-rule="evenodd" clip-rule="evenodd" d="M137 180L370 60V180H137Z" fill="url(#linearGradientSquareDokumenty-3)"></path>
                        <path d="M305.585 66.3137L319.49 52.5116L319.981 82.6378L306.073 96.4468L305.585 66.3137Z" fill="#DFE6F6"></path>
                        <path d="M255.387 70.7522L255.484 76.7865L293.764 60.9601L320.087 37.5753C319.954 35.8501 319.81 34.1277 319.677 32.4026C298.253 45.1959 276.82 57.974 255.387 70.7522Z" fill="white"></path>
                        <path d="M225.011 93.0631C225.255 97.77 225.492 102.473 225.74 107.173C248.357 97.0107 270.967 86.8444 293.584 76.6823L319.901 53.3019L319.63 36.6794C288.089 55.4763 256.548 74.2731 225.011 93.0631Z" fill="#98ADD8"></path>
                        <path d="M225.621 107.141C256.984 89.1965 288.35 71.2452 319.713 53.3008L314.671 62.152L318.031 63.5024L314.776 67.8832C298.472 77.6546 282.179 87.4232 265.875 97.1946C256.987 102.812 248.102 108.441 239.214 114.059C239.48 110.764 239.742 107.475 240.014 104.184C235.215 105.184 230.42 106.159 225.621 107.141Z" fill="#29407A"></path>
                        <path d="M314.575 61.262L328.937 58.3232L314.66 66.9727L314.575 61.262Z" fill="#4E74B5"></path>
                        <path d="M296.387 91.2162L293.469 89.3575L293.338 83.2009L296.262 85.0637L296.387 91.2162Z" fill="#919191"></path>
                        <path d="M296.355 78.855L293.434 76.9853L293.31 70.8148L296.224 72.6804L296.355 78.855Z" fill="#919191"></path>
                        <path d="M296.319 65.8394L293.404 63.9738L293.274 57.7991L296.195 59.6689L296.319 65.8394Z" fill="#919191"></path>
                        <path d="M296.287 53.4602L293.367 51.5904L293.242 45.4379L296.16 47.2966L296.287 53.4602Z" fill="#919191"></path>
                        <path d="M255.299 145.116L252.36 143.243L251.915 121.707L254.854 123.58L255.299 145.116Z" fill="#919191"></path>
                        <path d="M259.417 113.955L256.477 112.072L293.373 89.8028L296.311 91.6741L259.417 113.955Z" fill="#919191"></path>
                        <path d="M259.433 114.35L256.512 112.48L256.388 106.328L259.306 108.187L259.433 114.35Z" fill="#717173"></path>
                        <path d="M259.401 107.741L256.463 105.87L293.354 83.596L296.298 85.4715L259.401 107.741Z" fill="#727273"></path>
                        <path d="M259.413 113.94L259.284 107.727L296.241 85.4251L296.367 91.6274L259.413 113.94Z" fill="#FA7564"></path>
                        <path d="M296.259 41.0924L293.335 39.2296L293.204 33.0551L296.129 34.918L296.259 41.0924Z" fill="#919191"></path>
                        <path d="M255.335 145.12L237.696 134.064L254.892 123.676L255.335 145.12Z" fill="#D1DCE6"></path>
                        <path d="M237.752 134.191L234.816 132.311L252.083 121.885L255.022 123.758L237.752 134.191Z" fill="#727273"></path>
                        <path d="M241.671 112.478L238.733 110.606L293.337 77.6284L296.278 79.5116L241.671 112.478Z" fill="#919191"></path>
                        <path d="M241.659 106.258L238.718 104.375L293.325 71.4085L296.26 73.2875L241.659 106.258Z" fill="#727273"></path>
                        <path d="M241.686 113.069L238.768 111.21L238.641 105.029L241.562 106.899L241.686 113.069Z" fill="#717173"></path>
                        <path d="M241.635 99.4622L238.7 97.5831L293.307 64.6169L296.242 66.496L241.635 99.4622Z" fill="#919191"></path>
                        <path d="M241.624 93.2419L238.682 91.3587L293.289 58.3926L296.231 60.2758L241.624 93.2419Z" fill="#727273"></path>
                        <path d="M241.65 100.054L238.736 98.1879L238.605 92.0132L241.526 93.883L241.65 100.054Z" fill="#717173"></path>
                        <path d="M241.629 99.4457L241.505 93.2254L296.174 60.2266L296.299 66.4469L241.629 99.4457Z" fill="#9CB5CC"></path>
                        <path d="M241.605 87.083L238.67 85.204L293.27 52.2336L296.212 54.1168L241.605 87.083Z" fill="#919191"></path>
                        <path d="M241.595 80.8739L238.649 78.9976L293.256 46.0315L296.195 47.9036L241.595 80.8739Z" fill="#727273"></path>
                        <path d="M241.618 87.6745L238.704 85.8089L238.573 79.6522L241.497 81.5151L241.618 87.6745Z" fill="#717173"></path>
                        <path d="M241.576 74.7149L238.63 72.8386L293.237 39.8725L296.182 41.7488L241.576 74.7149Z" fill="#919191"></path>
                        <path d="M241.59 75.3061L238.666 73.4432L238.542 67.2728L241.46 69.1316L241.59 75.3061Z" fill="#717173"></path>
                        <path d="M241.557 68.4904L238.618 66.6183L293.219 33.6479L296.164 35.5242L241.557 68.4904Z" fill="#727273"></path>
                        <path d="M255.698 123.061L238.402 133.505L236.689 51.1536L299.209 13.404L301.367 117.326L256.144 144.633L255.698 123.061ZM241.567 93.1087L241.699 99.3258L296.288 66.3695L296.156 60.1524L241.567 93.1087ZM241.053 68.3853L241.184 74.6024L295.773 41.6461L295.641 35.429L241.053 68.3853ZM241.839 106.109L241.971 112.327L296.56 79.3703L296.428 73.1532L241.839 106.109ZM241.315 80.7546L241.447 86.9537L296.036 53.9974L295.903 47.7983L241.315 80.7546ZM296.809 91.7133L296.677 85.5141L259.781 107.791L259.913 113.99L296.809 91.7133Z" fill="url(#linearGradientRectangleStandart-4)"></path>
                        <path d="M241.666 112.461L241.541 106.241L296.203 73.238L296.335 79.4625L241.666 112.461Z" fill="#9CB5CC"></path>
                        <path d="M241.598 87.0665L241.476 80.8573L296.139 47.8543L296.267 54.0677L241.598 87.0665Z" fill="#9CB5CC"></path>
                        <path d="M241.57 74.6985L241.439 68.4741L296.108 35.4754L296.239 41.6998L241.57 74.6985Z" fill="#9CB5CC"></path>
                        <path d="M238.474 134.372L235.532 132.488L233.82 50.1069L236.766 51.9834L238.474 134.372Z" fill="#A8BDCC"></path>
                        <path d="M237.544 51.2395L234.599 49.363L297.148 11.5974L300.09 13.4808L237.544 51.2395Z" fill="#D7E7F7"></path>
                        <path d="M301.825 94.6205L298.907 92.7618L298.776 86.6052L301.701 88.468L301.825 94.6205Z" fill="#919191"></path>
                        <path d="M301.793 82.2591L298.872 80.3893L298.748 74.2188L301.662 76.0844L301.793 82.2591Z" fill="#919191"></path>
                        <path d="M301.756 69.2437L298.842 67.3781L298.711 61.2034L301.632 63.0732L301.756 69.2437Z" fill="#919191"></path>
                        <path d="M301.725 56.8647L298.805 54.995L298.68 48.8424L301.598 50.7011L301.725 56.8647Z" fill="#919191"></path>
                        <path d="M260.738 148.52L257.798 146.647L257.353 125.111L260.292 126.984L260.738 148.52Z" fill="#919191"></path>
                        <path d="M264.855 117.359L261.915 115.476L298.812 93.2071L301.749 95.0784L264.855 117.359Z" fill="#919191"></path>
                        <path d="M264.871 117.755L261.951 115.885L261.826 109.732L264.744 111.591L264.871 117.755Z" fill="#717173"></path>
                        <path d="M264.839 111.145L261.901 109.274L298.792 87.0003L301.736 88.8758L264.839 111.145Z" fill="#727273"></path>
                        <path d="M264.851 117.344L264.723 111.131L301.68 88.8292L301.805 95.0314L264.851 117.344Z" fill="#FA7564"></path>
                        <path d="M301.697 44.4963L298.773 42.6334L298.649 36.463L301.567 38.3218L301.697 44.4963Z" fill="#919191"></path>
                        <path d="M260.773 148.523L243.134 137.468L260.33 127.08L260.773 148.523Z" fill="#D1DCE6"></path>
                        <path d="M243.19 137.595L240.254 135.716L257.521 125.289L260.46 127.162L243.19 137.595Z" fill="#727273"></path>
                        <path d="M247.11 115.882L244.172 114.01L298.776 81.0325L301.717 82.9157L247.11 115.882Z" fill="#919191"></path>
                        <path d="M247.097 109.662L244.156 107.779L298.763 74.8127L301.698 76.6918L247.097 109.662Z" fill="#727273"></path>
                        <path d="M247.124 116.473L244.206 114.614L244.079 108.433L247 110.303L247.124 116.473Z" fill="#717173"></path>
                        <path d="M247.074 102.866L244.139 100.987L298.746 68.0212L301.681 69.9003L247.074 102.866Z" fill="#919191"></path>
                        <path d="M247.062 96.6462L244.12 94.763L298.727 61.7969L301.669 63.6801L247.062 96.6462Z" fill="#727273"></path>
                        <path d="M247.088 103.458L244.174 101.592L244.044 95.4173L246.964 97.2871L247.088 103.458Z" fill="#717173"></path>
                        <path d="M247.068 102.85L246.943 96.6295L301.612 63.6307L301.737 69.8509L247.068 102.85Z" fill="#9CB5CC"></path>
                        <path d="M247.042 90.4871L244.107 88.6081L298.708 55.6377L301.649 57.5209L247.042 90.4871Z" fill="#919191"></path>
                        <path d="M247.033 84.2782L244.088 82.402L298.695 49.4358L301.634 51.3079L247.033 84.2782Z" fill="#727273"></path>
                        <path d="M247.057 91.0788L244.143 89.2132L244.011 83.0565L246.936 84.9194L247.057 91.0788Z" fill="#717173"></path>
                        <path d="M247.014 78.1192L244.069 76.2429L298.676 43.2768L301.621 45.1531L247.014 78.1192Z" fill="#919191"></path>
                        <path d="M247.028 78.7107L244.104 76.8478L243.98 70.6774L246.898 72.5361L247.028 78.7107Z" fill="#717173"></path>
                        <path d="M246.995 71.8949L244.056 70.0228L298.663 37.0566L301.602 38.9288L246.995 71.8949Z" fill="#727273"></path>
                        <path d="M261.136 126.465L243.84 136.909L242.128 54.5577L304.647 16.808L306.806 120.73L261.582 148.037L261.136 126.465ZM247.006 96.5127L247.137 102.73L301.726 69.7735L301.595 63.5564L247.006 96.5127ZM246.491 71.7893L246.623 78.0065L301.211 45.0502L301.08 38.833L246.491 71.7893ZM247.278 109.514L247.409 115.731L301.998 82.7744L301.866 76.5572L247.278 109.514ZM246.753 84.1586L246.885 90.3578L301.474 57.4015L301.342 51.2023L246.753 84.1586ZM302.248 95.1174L302.115 88.9182L265.219 111.195L265.352 117.394L302.248 95.1174Z" fill="url(#linearGradientRectangleStandart-5)"></path>
                        <path d="M247.104 115.866L246.979 109.645L301.642 76.6423L301.773 82.8668L247.104 115.866Z" fill="#9CB5CC"></path>
                        <path d="M247.036 90.4705L246.915 84.2614L301.577 51.2583L301.706 57.4717L247.036 90.4705Z" fill="#9CB5CC"></path>
                        <path d="M247.008 78.1028L246.877 71.8784L301.546 38.8797L301.677 45.1041L247.008 78.1028Z" fill="#9CB5CC"></path>
                        <path d="M243.912 137.776L240.97 135.893L239.258 53.511L242.204 55.3874L243.912 137.776Z" fill="#A8BDCC"></path>
                        <path d="M242.983 54.644L240.037 52.7675L302.593 15.0062L305.528 16.8854L242.983 54.644Z" fill="#D7E7F7"></path>
                        <path d="M307.264 98.0245L304.346 96.1658L304.215 90.0092L307.14 91.8721L307.264 98.0245Z" fill="#919191"></path>
                        <path d="M307.232 85.6634L304.312 83.7936L304.188 77.6231L307.102 79.4887L307.232 85.6634Z" fill="#919191"></path>
                        <path d="M307.196 72.6478L304.282 70.7821L304.151 64.6075L307.072 66.4773L307.196 72.6478Z" fill="#919191"></path>
                        <path d="M307.165 60.2687L304.244 58.399L304.119 52.2465L307.037 54.1052L307.165 60.2687Z" fill="#919191"></path>
                        <path d="M266.177 151.925L263.238 150.052L262.792 128.516L265.732 130.389L266.177 151.925Z" fill="#919191"></path>
                        <path d="M270.294 120.763L267.354 118.88L304.251 96.6109L307.188 98.4822L270.294 120.763Z" fill="#919191"></path>
                        <path d="M270.31 121.159L267.39 119.289L267.265 113.136L270.183 114.995L270.31 121.159Z" fill="#717173"></path>
                        <path d="M270.278 114.549L267.341 112.678L304.231 90.4046L307.175 92.2801L270.278 114.549Z" fill="#727273"></path>
                        <path d="M270.29 120.748L270.162 114.535L307.119 92.2335L307.244 98.4357L270.29 120.748Z" fill="#FA7564"></path>
                        <path d="M307.136 47.9006L304.212 46.0377L304.088 39.8673L307.006 41.726L307.136 47.9006Z" fill="#919191"></path>
                        <path d="M266.212 151.928L248.573 140.872L265.769 130.484L266.212 151.928Z" fill="#D1DCE6"></path>
                        <path d="M248.629 140.999L245.693 139.12L262.96 128.693L265.899 130.566L248.629 140.999Z" fill="#727273"></path>
                        <path d="M252.549 119.286L249.61 117.414L304.214 84.4365L307.156 86.3197L252.549 119.286Z" fill="#919191"></path>
                        <path d="M252.537 113.066L249.595 111.183L304.202 78.2166L307.137 80.0956L252.537 113.066Z" fill="#727273"></path>
                        <path d="M252.563 119.877L249.645 118.018L249.519 111.837L252.439 113.707L252.563 119.877Z" fill="#717173"></path>
                        <path d="M252.519 106.275L249.578 104.391L304.185 71.4253L307.12 73.3043L252.519 106.275Z" fill="#919191"></path>
                        <path d="M252.501 100.05L249.559 98.167L304.166 65.2009L307.108 67.0841L252.501 100.05Z" fill="#727273"></path>
                        <path d="M252.534 106.865L249.613 104.996L249.482 98.8212L252.403 100.691L252.534 106.865Z" fill="#717173"></path>
                        <path d="M252.513 106.258L252.382 100.034L307.051 67.035L307.176 73.2552L252.513 106.258Z" fill="white"></path>
                        <path d="M252.482 93.8914L249.547 92.0123L304.147 59.042L307.089 60.9252L252.482 93.8914Z" fill="#919191"></path>
                        <path d="M252.472 87.6825L249.527 85.8062L304.134 52.8401L307.073 54.7122L252.472 87.6825Z" fill="#727273"></path>
                        <path d="M252.496 94.4826L249.581 92.617L249.45 86.4603L252.375 88.3232L252.496 94.4826Z" fill="#717173"></path>
                        <path d="M252.453 81.523L249.508 79.6467L304.115 46.6807L307.06 48.5569L252.453 81.523Z" fill="#919191"></path>
                        <path d="M252.468 82.1147L249.543 80.2518L249.419 74.0814L252.337 75.9402L252.468 82.1147Z" fill="#717173"></path>
                        <path d="M252.435 75.299L249.496 73.4268L304.103 40.4607L307.042 42.3328L252.435 75.299Z" fill="#727273"></path>
                        <path d="M266.575 129.87L249.279 140.313L247.567 57.9622L310.086 20.2126L312.245 124.135L267.021 151.441L266.575 129.87ZM252.445 99.9172L252.576 106.134L307.165 73.1781L307.034 66.961L252.445 99.9172ZM251.93 75.1939L252.062 81.411L306.65 48.4547L306.519 42.2376L251.93 75.1939ZM252.717 112.918L252.848 119.135L307.43 86.1747L307.299 79.9576L252.717 112.918ZM252.192 87.5632L252.324 93.7623L306.913 60.806L306.781 54.6069L252.192 87.5632ZM307.687 98.5219L307.554 92.3227L270.658 114.6L270.791 120.799L307.687 98.5219Z" fill="url(#linearGradientRectangleStandart-6)"></path>
                        <path d="M252.543 119.27L252.418 113.049L307.081 80.0464L307.212 86.2708L252.543 119.27Z" fill="#9CB5CC"></path>
                        <path d="M252.475 93.8748L252.353 87.6656L307.016 54.6626L307.145 60.876L252.475 93.8748Z" fill="white"></path>
                        <path d="M252.447 81.5066L252.316 75.2822L306.985 42.2835L307.117 48.5079L252.447 81.5066Z" fill="white"></path>
                        <path d="M249.351 141.18L246.409 139.297L244.697 56.9153L247.643 58.7917L249.351 141.18Z" fill="#A8BDCC"></path>
                        <path d="M248.422 58.0478L245.476 56.1713L308.032 18.41L310.967 20.2892L248.422 58.0478Z" fill="#D7E7F7"></path>
                        <path d="M226.325 197.676L224.881 107.989L239.276 105.044L235.367 197.847L226.325 197.676Z" fill="#4E74B5"></path>
                        <path d="M239.869 104.873L234.79 113.768L239.965 110.617L239.869 104.873Z" fill="#29407A"></path>
                        <path d="M234.637 111.908C265.836 94.2944 297.028 76.6763 328.227 59.0623L329.678 148.764C298.291 166.719 266.903 184.675 235.505 202.633C235.217 172.395 234.932 142.15 234.637 111.908Z" fill="#DFE6F6"></path>
                    </g>
                </g>
            </g>
        </g>
    </svg>