<svg id="ImportRectangleSvg" width="370px" height="180px" viewBox="0 0 370 180" version="1.1" xmlns="http://www.w3.org/2000/svg" xmlns:xlink="http://www.w3.org/1999/xlink">
		<defs>
			<rect id="pathRectangleImport-1" x="0" y="0" width="370" height="180" rx="10"></rect>
			<linearGradient id="linearGradientRectangleImport-1" x1="-135.259832%" y1="-15.0800833%" x2="128.725656%" y2="139.246987%">
				<stop stop-color="#93A9D6" offset="0%"></stop>
				<stop stop-color="#E0E7F7" offset="100%"></stop>
			</linearGradient>
			<linearGradient id="linearGradientRectangleImport-2" x1="-35.6246017%" y1="23.7113641%" x2="239.938864%" y2="118.027093%">
				<stop stop-color="#93A9D6" offset="0%"></stop>
				<stop stop-color="#E0E7F7" offset="100%"></stop>
			</linearGradient>
			<linearGradient id="linearGradientRectangleImport-3" x1="35.267866%" y1="0%" x2="405.877242%" y2="7.26375362%">
				<stop stop-color="#93A9D6" offset="0%"></stop>
				<stop stop-color="#E0E7F7" offset="100%"></stop>
			</linearGradient>
			<linearGradient id="linearGradientRectangleImport-4" x1="-65.8913996%" y1="42.7199185%" x2="127.464712%" y2="42.7199187%">
				<stop stop-color="#93A9D6" offset="0%"></stop>
				<stop stop-color="#E0E7F7" offset="100%"></stop>
			</linearGradient>
			<linearGradient id="linearGradientRectangleImport-5" x1="3.26732772%" y1="98.1952656%" x2="101.760485%" y2="43.7917892%">
				<stop stop-color="#6494D4" offset="0%"></stop>
				<stop stop-color="#4565A8" offset="100%"></stop>
			</linearGradient>
			<linearGradient id="linearGradientRectangleImport-6" x1="143.22971%" y1="122.977481%" x2="-50.6468215%" y2="9.65334301%">
				<stop stop-color="#6BA3DE" offset="0%"></stop>
				<stop stop-color="#202873" offset="100%"></stop>
			</linearGradient>
			<linearGradient id="linearGradientRectangleImport-7" x1="42.0200725%" y1="-5.93728699%" x2="42.0200735%" y2="166.799296%">
				<stop stop-color="#6BA3DE" offset="0%"></stop>
				<stop stop-color="#202873" offset="100%"></stop>
			</linearGradient>
			<linearGradient id="linearGradientRectangleImport-8" x1="143.22971%" y1="122.977481%" x2="61.9744013%" y2="-73.0362457%">
				<stop stop-color="#6BA3DE" offset="0%"></stop>
				<stop stop-color="#202873" offset="100%"></stop>
			</linearGradient>
		</defs>
		<g stroke="none" stroke-width="1" fill="none" fill-rule="evenodd">
			<g transform="translate(-935.000000, -1020.000000)">
				<g transform="translate(935.000000, 1020.000000)">
					<mask id="maskRectangleImport-2" fill="white">
						<use xlink:href="#pathRectangleImport-1"></use>
					</mask>
					<use id="MaskImportRectangle" fill="#FFFFFF" xlink:href="#pathRectangleImport-1"></use>
					<g mask="url(#maskRectangleImport-2)">
						<g transform="translate(154.000000, -8.000000)">
							<path d="M190.627906,21.6588953 C189.961149,21.7472884 189.375592,22.1445848 189.048745,22.7303453 L186.412997,27.4581757 L171.318492,26.5562954 C170.605125,26.5136127 169.917893,26.8305786 169.488947,27.4001197 L162.587384,36.568662 C162.21672,37.0610452 162.079092,37.6896194 162.210256,38.2910868 L163.134898,42.5260158 L159.078944,39.1584784 C158.605984,38.7661879 157.98574,38.5971199 157.378228,38.6948924 L148.387393,40.1399703 L145.877356,37.1380135 C145.152069,36.271201 143.872433,36.1223763 142.966285,36.7994491 L139.596034,39.3179888 L138.837619,38.0591501 C138.521661,37.535226 137.994148,37.1726544 137.39039,37.0644375 L97.2973235,29.8606034 C97.1995952,29.8426147 90.1498197,30.0495471 76.147997,30.4814006 C75.7024115,30.495425 75.2725,30.6485361 74.9189505,30.9191201 L66.3738048,37.4688179 C65.6556421,38.0194811 65.3662733,38.9629126 65.6528011,39.8195125 L70.7902553,55.1744713 L70.5358445,62.5148233 L67.6995966,62.9183415 C67.197786,62.9896551 66.738006,63.2371112 66.4030245,63.6161635 L51.9432901,79.9885399 C51.4919026,80.499442 51.3141328,81.19521 51.4653901,81.8589788 L53.1089647,89.062813 C53.1292452,89.1523302 53.4384803,89.8787012 54.03667,91.2419261 L52.4668514,90.8070806 C51.4617258,90.5287873 50.4023367,91.0175566 49.9651163,91.9613036 L44.049488,104.732108 C43.6320859,105.633656 43.8984691,106.703081 44.6905052,107.305542 L57.1793935,116.802015 C57.5278163,117.066813 57.9497905,117.217974 58.3876706,117.234848 L75.3511893,117.884961 L80.6694425,118.721313 L83.1140361,121.697403 C83.725034,122.44154 84.7620809,122.682894 85.6406932,122.285436 L89.1501778,120.695505 L104.822316,115.490581 C104.889394,115.468012 110.480529,112.638403 121.595719,107.001754 L143.640618,117.532601 L145.758975,130.198876 C145.818104,130.551375 145.965702,130.883263 146.188052,131.163698 L155.481214,142.893316 L154.94409,146.640517 L142.697279,144.144682 C142.060448,144.015142 141.399119,144.182704 140.901751,144.59962 C140.404382,145.016536 140.125521,145.637081 140.144633,146.284421 L140.451108,156.670415 L132.68829,166.881092 C132.147888,167.592076 132.111803,168.564011 132.598006,169.312835 L136.212399,174.879029 C136.790298,175.768931 137.938972,176.096886 138.902173,175.646978 L148.012486,171.392506 L151.22795,174.842816 C151.574186,175.214533 152.042672,175.450283 152.54842,175.507299 L172.92377,177.799363 C173.357695,177.848279 173.796217,177.762989 174.179826,177.555068 L207.372364,159.546201 C207.767759,159.33146 208.084589,158.997272 208.277264,158.591725 L210.207582,154.530677 L215.632837,157.937589 L214.162764,158.222121 C213.352214,158.379543 212.706264,158.990016 212.505679,159.788197 L211.426241,164.092391 L197.499485,171.185573 C196.764182,171.560299 196.312906,172.325113 196.341842,173.147525 C196.370779,173.969936 196.874701,174.701384 197.634536,175.023882 L211.705707,180.989571 L211.131179,191.292505 C211.067434,192.436853 211.92791,193.424532 213.073964,193.522489 L224.575876,194.504843 C225.134459,194.552256 225.689254,194.378122 226.119714,194.020276 L237.950965,184.197598 C237.973517,184.178488 239.722027,182.534237 243.196495,179.264847 L246.098206,179.747401 C246.157993,179.757633 249.20585,179.876523 255.241777,180.104072 C256.130836,180.136641 256.94639,179.614679 257.286374,178.795512 L261.230126,169.299902 C261.497466,168.65568 261.429898,167.921679 261.049401,167.336664 C260.668903,166.751649 260.0241,166.390378 259.324741,166.370372 L247.822829,166.042441 C247.356575,166.029081 246.898832,166.168737 246.520023,166.439924 L241.79708,169.822694 L236.950505,169.931908 L236.031061,166.038705 C235.924308,165.586958 235.671744,165.18259 235.312122,164.887643 L234.031132,163.835737 L253.10575,163.076123 C253.962686,163.041675 254.715111,162.498017 255.014255,161.697148 L261.012991,145.65299 L274.556386,136.865548 C275.058569,136.539682 275.399564,136.01793 275.495569,135.428517 L277.265896,124.55422 L281.662614,123.007687 C282.18243,122.824854 282.610753,122.448158 282.857378,121.956931 L283.880712,119.917497 L296.298957,120.506679 C296.863918,120.533305 297.416273,120.33473 297.83402,119.954816 C298.251767,119.574902 298.500531,119.04491 298.525366,118.481903 L299.183003,103.418949 C299.217451,102.625984 298.804519,101.880256 298.112912,101.486431 L297.0262,100.867358 L297.464626,96.9328544 L303.031175,89.5364582 C303.688858,88.6627421 303.572835,87.4341727 302.76312,86.6980355 L291.589507,76.5471391 C291.404369,76.3789752 291.190882,76.2447069 290.95888,76.1505187 L273.212007,68.946972 C272.275871,68.5671726 271.200768,68.895939 270.639636,69.7336025 L269.654735,71.2056966 L262.592141,62.0837141 C262.003176,61.3230859 260.97453,61.0520845 260.085222,61.4232549 L250.938551,65.2451813 L243.339868,60.2940363 C242.6468,59.8403008 241.752316,59.8290837 241.048007,60.2652957 L237.916695,62.2144839 L230.666053,44.8755608 C230.302421,44.0058605 229.40643,43.4795706 228.466651,43.5836703 L218.438971,44.6933453 L216.787084,38.7244952 L219.680482,37.4883615 C220.237038,37.2506084 220.665573,36.7878515 220.858739,36.2160082 C221.051906,35.644165 220.991407,35.0174051 220.692396,34.4927277 L212.476597,20.0850594 C212.081021,19.3915977 211.328307,18.9780257 210.528618,19.0147591 C210.487624,19.0163154 203.854053,19.8976942 190.627906,21.6588953 Z" fill="url(#linearGradientRectangleImport-1)"></path>
							<g stroke-width="1" fill="none">
								<g transform="translate(0.000000, 102.486885)">
									<polygon fill="url(#linearGradientRectangleImport-2)" points="0.000215068601 12.6308689 18.6944276 26.5304661 18.8861169 45.1972707 0.000215068601 31.7263957"></polygon>
									<polygon fill="url(#linearGradientRectangleImport-3)" points="38.0621091 14.292802 18.6673182 26.519083 18.8861169 45.1972707 38.0621091 32.2695904"></polygon>
									<polygon fill="url(#linearGradientRectangleImport-4)" points="38.0547376 14.3437495 18.68142 26.5650573 0.0164768657 12.6559398 19.1759923 0"></polygon>
								</g>
								<g transform="translate(71.861538, 133.846721)">
									<polygon fill="url(#linearGradientRectangleImport-2)" points="0.000181981124 10.7496757 15.8183618 22.5791201 15.9805604 38.4657623 0.000181981124 27.0011878"></polygon>
									<polygon fill="url(#linearGradientRectangleImport-3)" points="32.2064 12.1640869 15.7954231 22.5694324 15.9805604 38.4657623 32.2064 27.4634812"></polygon>
									<polygon fill="url(#linearGradientRectangleImport-4)" points="32.2001626 12.2074464 15.8073554 22.6085594 0.0139419633 10.7710126 16.2258396 0"></polygon>
								</g>
								<g transform="translate(29.600000, 35.963115)">
									<g>
										<polygon fill="url(#linearGradientRectangleImport-2)" points="0.000132349908 7.79351488 11.5042631 16.369862 11.6222258 27.8876777 0.000132349908 19.5758611"></polygon>
										<polygon fill="url(#linearGradientRectangleImport-3)" points="23.4228364 8.81896297 11.4875804 16.3628385 11.6222258 27.8876777 23.4228364 19.9110239"></polygon>
										<polygon fill="url(#linearGradientRectangleImport-4)" points="23.4183001 8.85039862 11.4962584 16.3912056 0.0101396096 7.80898415 11.8006106 0"></polygon>
									</g>
								</g>
								<path d="M87.4607659,145.315317 C103.681658,114.973993 126.60938,98.1978589 156.24393,94.9869142" stroke="url(#linearGradientRectangleImport-5)" stroke-width="1.95519999" stroke-linecap="round" stroke-dasharray="2.932799927425378,6.843199512767796"></path>
								<path d="M54.8571409,109.183105 C73.3482318,64.4105878 106.630366,35.1021766 154.703544,21.2578711" stroke="url(#linearGradientRectangleImport-5)" stroke-width="1.95519999" stroke-linecap="round" stroke-dasharray="2.932799927425378,6.843199512767796" transform="translate(104.780342, 65.220488) rotate(61.000000) translate(-104.780342, -65.220488) "></path>
								<path d="M19.1584071,115.445158 C60.1540457,73.6408428 107.117794,64.9715352 160.049653,89.4372346" stroke="url(#linearGradientRectangleImport-5)" stroke-width="1.95519999" stroke-linecap="round" stroke-dasharray="2.932799927425378,6.843199512767796"></path>
							</g>
							<g id="placeholder-(1)" stroke-width="1" fill="none" transform="translate(159.851282, 44.929918)">
								<path d="M16.2165048,10.9544842 C21.2887383,13.8737368 25.3872688,20.9501158 25.3706584,26.7612526 C25.3541852,32.5711579 21.2288857,34.9145789 16.1566522,31.9954632 C11.0833204,29.0756632 6.98478986,21.9992842 7.00140033,16.1893789 C7.01787352,10.3781053 11.143173,8.03454737 16.2165048,10.9544842 Z" fill="#ADBDE1" fill-rule="nonzero"></path>
								<path d="M21.9586482,28.6275053 C16.8853164,25.7077053 12.7867859,18.6313263 12.8032591,12.8214211 C12.8065537,11.6801579 12.9703247,10.6747789 13.2665676,9.81458947 C9.6364249,9.13489474 7.01444161,11.5598737 7.00140033,16.1892421 C6.98492714,21.9991474 11.0834577,29.0755263 16.1566522,31.9953263 C20.2328066,34.3413474 23.6954719,33.2861579 24.9074871,29.7669895 C23.9810072,29.5934737 22.9900074,29.2211263 21.9586482,28.6275053 Z" fill="url(#linearGradientRectangleImport-6)" fill-rule="nonzero"></path>
								<path d="M36.1909197,54.4527579 L36.1873505,54.4527579 C36.1874878,53.8714526 36.1078673,53.2901474 35.9413508,52.7158211 C35.9413508,52.7158211 35.9368207,52.7111684 35.9368207,52.7066526 C35.8168409,52.2977684 35.6555409,51.8887474 35.4481159,51.4842421 C35.4435858,51.4749368 35.4389184,51.4704211 35.434251,51.4613895 C34.6092186,49.8574632 33.1016468,48.3502842 30.9118103,47.0910632 C23.876933,43.0379368 12.3613471,43.0379368 5.32180243,47.0910632 C3.13210319,48.3548 1.62466871,49.8619789 0.799361713,51.4659053 C0.794831585,51.4704211 0.79016418,51.4795895 0.79016418,51.4843789 C0.591936752,51.8750632 0.430499456,52.2701263 0.315324378,52.6654632 C0.137825719,53.2563474 0.0510668998,53.8546211 0.0506550699,54.4528947 L0.0499686869,54.4528947 L0.0499686869,54.4698632 C0.0499686869,54.4849158 0.0498314103,54.4998316 0.0499686869,54.5150211 L0.0499686869,57.7115158 L0.0506550699,57.7115158 C0.048870474,60.3799368 1.80463834,63.0501368 5.32166515,65.0734842 C12.3610726,69.1266105 23.8767957,69.1266105 30.911673,65.0734842 C34.4321317,63.0508211 36.1865268,60.3806211 36.1870759,57.7115158 L36.1906451,57.7115158 L36.1906451,54.4528947 L36.1909197,54.4528947 L36.1909197,54.4527579 Z" fill="#081E54" fill-rule="nonzero"></path>
								<path d="M30.9124967,61.8145895 C23.8776194,65.8677158 12.3617589,65.8677158 5.32248881,61.8145895 C1.01667059,59.3377474 -0.652063908,55.8912421 0.316010761,52.6651895 C0.431323116,52.2699895 0.592623135,51.8747895 0.790850563,51.4842421 C0.790850563,51.4797263 0.795380692,51.4705579 0.800048096,51.4657684 C1.62521781,49.8619789 3.13265229,48.3546632 5.32248881,47.0909263 C12.3618962,43.0378 23.8776194,43.0378 30.9124967,47.0909263 C33.1021959,48.3500105 34.6096304,49.8574632 35.4349374,51.4611158 C35.4396048,51.4704211 35.4442722,51.4748 35.448665,51.4841053 C35.65609,51.8884737 35.8175273,52.2973579 35.9373698,52.7065158 C35.9373698,52.7110316 35.9418999,52.7156842 35.9418999,52.7156842 C36.8731844,55.9279158 35.1997825,59.3515684 30.9124967,61.8145895 Z" fill="#29407A" fill-rule="nonzero"></path>
								<path d="M16.2322916,5.37201053 C24.2838394,10.0058947 30.7907509,21.2391263 30.764531,30.4631053 C30.7383112,39.6868105 16.8198355,55.5533789 16.0873275,56.3885263 C15.3618206,54.7142632 1.57787593,22.9043579 1.60423304,13.6806526 C1.6303156,4.45667368 8.17978277,0.737578947 16.2322916,5.37201053 Z M16.1566522,31.9954632 C21.2288857,34.9147158 25.3541852,32.5711579 25.3706584,26.7612526 C25.3871316,20.9499789 21.288601,13.8736 16.2165048,10.9544842 C11.143173,8.03468421 7.01787352,10.3781053 7.00140033,16.1893789 C6.98478986,21.9991474 11.0833204,29.0756632 16.1566522,31.9954632 Z" fill="url(#linearGradientRectangleImport-7)" fill-rule="nonzero"></path>
								<path d="M22.0636648,1.99392632 C18.0112592,-0.338273684 14.3393844,-0.555031579 11.6881611,0.980884211 L5.85692521,4.35896842 C8.50814843,2.82318947 12.179886,3.03981053 16.2324288,5.37201053 C24.2839767,10.0058947 30.7908881,21.2391263 30.7646683,30.4631053 C30.7383112,39.6868105 16.8198355,55.5533789 16.0873275,56.3885263 L21.9185634,53.0104421 C22.6510714,52.1754316 36.5695471,36.3088632 36.595767,27.0848842 C36.6221241,17.8610421 30.1152126,6.62781053 22.0636648,1.99392632 Z" fill="url(#linearGradientRectangleImport-8)" fill-rule="nonzero"></path>
							</g>
						</g>
					</g>
				</g>
			</g>
		</g>
	</svg>