<svg id="InsuranceSquareSvg" width="270px" height="270px" viewBox="0 0 270 270" version="1.1" xmlns="http://www.w3.org/2000/svg" xmlns:xlink="http://www.w3.org/1999/xlink">
		<defs>
			<rect id="pathSquareInsurance-2" x="0" y="0" width="270" height="270" rx="10"></rect>
			<linearGradient id="linearGradientSquareInsurance-1" x1="111.934306%" y1="132.713143%" x2="-4.66414518%" y2="4.48203416%">
				<stop stop-color="#93A9D6" offset="0%"></stop>
				<stop stop-color="#E0E7F7" offset="100%"></stop>
			</linearGradient>
			<linearGradient id="linearGradientSquareInsurance-2" x1="4.28166229%" y1="89.9634535%" x2="71.314137%" y2="-3.45351943%">
				<stop stop-color="#F1F4FB" offset="0%"></stop>
				<stop stop-color="#CED6EA" offset="100%"></stop>
			</linearGradient>
			<linearGradient id="linearGradientSquareInsurance-3" x1="50%" y1="0%" x2="50%" y2="100%">
				<stop stop-color="#F1F4FB" offset="0%"></stop>
				<stop stop-color="#CED6EA" offset="100%"></stop>
			</linearGradient>
			<linearGradient id="linearGradientSquareInsurance-4" x1="-52.9808547%" y1="150.130372%" x2="107.133907%" y2="-5.4006669%">
				<stop stop-color="#93A9D6" offset="0%"></stop>
				<stop stop-color="#E0E7F7" offset="100%"></stop>
			</linearGradient>
			<linearGradient id="linearGradientSquareInsurance-5" x1="-63.0366072%" y1="31.4236178%" x2="121.040384%" y2="69.2644239%">
				<stop stop-color="#6BA3DE" offset="0%"></stop>
				<stop stop-color="#202873" offset="100%"></stop>
			</linearGradient>
			<linearGradient id="linearGradientSquareInsurance-6" x1="-184.424358%" y1="6.91117869%" x2="121.040384%" y2="69.2644239%">
				<stop stop-color="#6BA3DE" offset="0%"></stop>
				<stop stop-color="#202873" offset="100%"></stop>
			</linearGradient>
			<linearGradient id="linearGradientSquareInsurance-7" x1="-239.804566%" y1="-25.380792%" x2="121.040384%" y2="69.2644239%">
				<stop stop-color="#6BA3DE" offset="0%"></stop>
				<stop stop-color="#202873" offset="100%"></stop>
			</linearGradient>
		</defs>
		<g stroke="none" stroke-width="1" fill="none" fill-rule="evenodd">
			<g transform="translate(-102.000000, -622.000000)">
				<g transform="translate(102.000000, 622.000000)">
					<mask id="maskSquareInsurance-10" fill="white">
						<use xlink:href="#pathSquareInsurance-2"></use>
					</mask>
					<use id="MaskInsuranceSquare" fill="#FFFFFF" xlink:href="#pathSquareInsurance-2"></use>
					<rect fill="url(#linearGradientSquareInsurance-1)" mask="url(#maskSquareInsurance-10)" x="0" y="170" width="312" height="110"></rect>
					<g mask="url(#maskSquareInsurance-10)">
						<g transform="translate(167.000000, 55.000000)">
							<path d="M121.29311,204.033057 L4.43334615,136.241318 C1.8627033,134.749863 0.26632967,131.582373 0.253093407,127.084785 L117.112857,194.876123 C117.126093,199.374111 118.722467,202.541602 121.29311,204.033057 Z" fill="#A6B8DF" fill-rule="nonzero"></path>
							<polygon fill="#BECBE9" fill-rule="nonzero" points="136.925137 83.7841406 20.0653736 15.9928027 28.571478 10.9086426 145.746104 78.7003809"></polygon>
							<polygon fill="#A9BAE0" fill-rule="nonzero" points="136.925137 183.458184 20.0653736 115.666445 20.0653736 15.9928027 31.9298791 22.8751172 31.9298791 5.06894531 62.7102088 22.8843262 62.7102088 40.7305371 136.925137 83.7841406"></polygon>
							<polyline fill="url(#linearGradientSquareInsurance-2)" fill-rule="nonzero" points="130.82322 85.2828027 12.9827692 17.3681445 12.9827692 114.904102 130.546462 182.81876 130.82322 85.2828027"></polyline>
							<polyline fill="url(#linearGradientSquareInsurance-3)" fill-rule="nonzero" points="128.600731 86.4335254 10.7602802 18.5188672 10.7602802 116.054824 128.323973 183.969482 128.600731 86.4335254"></polyline>
							<polygon fill="#BECBE9" fill-rule="nonzero" points="117.112857 95.2024805 0.253895604 27.4111426 8.76240659 22.3257812 125.936632 90.1171191"></polygon>
							<polygon fill="url(#linearGradientSquareInsurance-4)" fill-rule="nonzero" points="117.112857 194.876523 0.253895604 127.084785 0.253895604 27.4111426 117.112857 95.2024805"></polygon>
							<g stroke-width="1" fill="none" fill-rule="evenodd" transform="translate(31.686813, 0.000000)">
								<polygon fill="#BECBE9" fill-rule="nonzero" points="31.0233956 22.8843262 0.243065934 5.06894531 9.06844505 0 39.8495769 17.8153809"></polygon>
								<polygon fill="#C8D3ED" fill-rule="nonzero" points="39.8495769 17.8153809 39.8495769 35.765293 31.0233956 40.7305371 31.0233956 22.8843262"></polygon>
							</g>
							<g stroke-width="1" fill="none" fill-rule="evenodd" transform="translate(27.675824, 74.072266)">
								<polygon fill="#A50020" fill-rule="nonzero" points="43.8008022 31.716543 43.8008022 10.9783105 25.0943516 0.163359375 18.2732637 4.12041992 18.2732637 17.0045898 6.95585714 10.4818262 0.13517033 14.4388867 0.13517033 35.9634863 18.1533352 46.383252 18.0943736 67.1214844 36.9187473 77.9360352 43.7398352 73.9789746 43.7398352 61.115625 55.0592473 67.6179688 61.8799341 63.6609082 61.8799341 42.1363086"></polygon>
								<polygon fill="#232D78" fill-rule="nonzero" points="36.9187473 57.1982031 43.7398352 53.241543 43.7398352 73.9789746 36.9187473 77.9360352"></polygon>
							</g>
							<polygon fill="#344B89" fill-rule="nonzero" points="27.8109945 88.5111523 34.6316813 84.5540918 52.7108132 94.9738574 45.9490879 98.930918"></polygon>
							<polygon fill="#232D78" fill-rule="nonzero" points="82.7350714 120.165635 89.5557582 116.208574 89.5557582 137.733174 82.7350714 141.690234"></polygon>
							<polygon fill="#344B89" fill-rule="nonzero" points="64.6559396 109.745869 71.4766264 105.788809 89.5557582 116.208574 82.7350714 120.165635"></polygon>
							<polygon fill="#232D78" fill-rule="nonzero" points="64.6559396 89.0076367 71.4766264 85.0505762 71.4766264 105.788809 64.6559396 109.745869"></polygon>
							<polygon fill="#344B89" fill-rule="nonzero" points="45.9490879 78.1926855 52.7701758 74.235625 71.4766264 85.0505762 64.6559396 89.0076367"></polygon>
							<polygon fill="#29407A" fill-rule="nonzero" points="64.6559396 89.0076367 64.6559396 109.745869 82.7350714 120.165635 82.7350714 141.690234 64.5945714 131.270469 64.5945714 152.008301 45.7701978 141.19335 45.8291593 120.455518 27.8109945 110.035752 27.8109945 88.5111523 45.9490879 98.930918 45.9490879 78.1926855"></polygon>
						</g>
					</g>
					<g mask="url(#maskSquareInsurance-10)">
						<g transform="translate(122.000000, 135.000000)">
							<g stroke-width="1" fill="none" fill-rule="evenodd" transform="translate(0.000000, 21.099415)">
								<path d="M69.9774658,20.7198655 C70.079589,15.4493275 66.6471918,10.1545731 59.682911,6.13297661 C46.0134932,-1.76036257 23.9244178,-1.76036257 10.3436986,6.13321637 C3.57527397,10.0670585 0.198972603,15.2193918 0.205924658,20.3750819 C0.205924658,20.358538 0.204965753,20.3419942 0.204965753,20.3254503 L0.204965753,81.3492749 C0.19010274,86.555076 3.43839041,91.7687895 10.3168493,95.7409942 C23.9853082,103.633854 46.0753425,103.634333 59.6560616,95.7407544 C66.4026712,91.8193801 69.9671575,86.6879064 69.9815411,81.5485205 L69.9815411,20.5249357 C69.9817808,20.5899123 69.9786644,20.6548889 69.9774658,20.7198655 Z" fill="#A66206" fill-rule="nonzero"></path>
								<path d="M69.9820205,20.5249357 L69.9820205,81.5487602 C69.9673973,86.6879064 66.402911,91.8196199 59.6565411,95.7409942 C46.0758219,103.634573 23.9857877,103.634094 10.3173288,95.7412339 C3.43863014,91.769269 0.190582192,86.5553158 0.205445205,81.3497544 L0.205394433,20.3256901 C0.190582192,25.5314912 3.62609589,30.7452047 10.5047945,34.7174094 C24.1732534,42.610269 46.2632877,42.6107485 59.8440068,34.7171696 C66.5906164,30.7955556 69.967637,25.6640819 69.9820205,20.5249357 Z" fill="url(#linearGradientSquareInsurance-5)" fill-rule="nonzero"></path>
							</g>
							<path d="M68.0330479,43.1533392 L67.8561301,100.76745 C67.8424658,105.619596 64.6541096,110.46431 58.284589,114.166778 C45.4626027,121.619187 24.6069178,121.618947 11.7019863,114.167018 C5.20780822,110.417076 2.14123288,105.494439 2.15489726,100.579474 L2.15485121,42.9653626 C2.14075342,47.8803275 5.3844863,52.8029649 11.8786644,56.5529064 C24.7833562,64.0048363 45.6392808,64.005076 58.4612671,56.5526667 C64.8305479,52.8501988 68.0191438,48.0054854 68.0330479,43.1533392 Z" fill="url(#linearGradientSquareInsurance-6)" fill-rule="nonzero"></path>
							<path d="M33.9535959,72.6090819 C25.4464384,72.4328538 17.0191096,70.4655731 10.5047945,66.7036433 C3.62609589,62.7316784 0.190821918,57.5177251 0.205445205,52.311924 L0.0179794521,94.1045906 C0.00311643836,99.3103918 3.43863014,104.524105 10.3173288,108.49631 C16.879589,112.285573 25.3826712,114.254532 33.9535959,114.405345 L33.9535959,72.6090819 Z" fill="#FFFFFF" fill-rule="nonzero"></path>
							<path d="M25.2306849,88.2521404 C22.370274,87.7601404 19.597363,87.051152 16.9857877,86.1275731 L16.9857877,78.0405029 C14.6813014,77.2243392 12.5024315,76.2412982 10.5047945,75.0877836 C10.0092808,74.8017427 9.53390411,74.508269 9.07386986,74.21 L9.07386986,82.2963509 C7.06400685,80.9901053 5.39071918,79.5716491 4.06407534,78.0757485 L4.06407534,87.1305146 C5.40126712,88.5954854 7.07455479,89.9842105 9.07386986,91.2624035 L9.07386986,98.0655263 C9.47493151,98.3218363 9.88941781,98.5735906 10.3173288,98.8205497 C12.3693836,100.005474 14.6113014,101.012491 16.9857877,101.841602 L16.9857877,95.038 C19.5997603,95.9491111 22.3726712,96.6468304 25.2306849,97.1287602 L25.2306849,88.2521404 Z" fill="#5884C3" fill-rule="nonzero"></path>
							<path d="M59.6831507,27.2326316 C73.3516096,35.1254912 73.424726,47.9230058 59.8440068,55.8165848 C46.2632877,63.7101637 24.1732534,63.7096842 10.5047945,55.8168246 C-3.16462329,47.9234854 -3.23678082,35.1264503 10.3439384,27.2328713 C23.9246575,19.3392924 46.0137329,19.3390526 59.6831507,27.2326316 Z" fill="url(#linearGradientSquareInsurance-5)" fill-rule="nonzero"></path>
							<g stroke-width="1" fill="none" fill-rule="evenodd" transform="translate(14.383562, 11.269006)">
								<path d="M41.1242808,12.1419942 C41.1844521,9.04038012 39.1647603,5.92461988 35.0664041,3.55812865 C27.022637,-1.08685965 14.0239726,-1.08685965 6.03246575,3.55836842 C2.04965753,5.87330994 0.0628082192,8.90491228 0.0668835616,11.9389123 C0.0668835616,11.9290819 0.0664041096,11.9192515 0.0664041096,11.9096608 L0.0117465753,24.5438947 C0.00287671233,27.6071462 2.02472603,30.675193 6.0725,33.0126725 C14.1157877,37.6571813 27.1149315,37.6576608 35.1064384,33.0124327 C39.0765411,30.704924 41.0636301,27.6850702 41.0722603,24.6609006 L41.1271575,12.0266667 C41.1266781,12.065269 41.125,12.1036316 41.1242808,12.1419942 Z" fill="#A66206" fill-rule="nonzero"></path>
								<path d="M41.1269178,12.0271462 L41.0720205,24.6613801 C41.0633904,27.6855497 39.0763014,30.7051637 35.1061986,33.0129123 C27.1144521,37.6579006 14.1155479,37.6576608 6.07226027,33.013152 C2.0244863,30.6756725 0.00287671233,27.6076257 0.0115068493,24.5443743 L0.0664041096,11.9101404 C0.0575342466,14.9733918 2.07938356,18.0414386 6.12715753,20.3789181 C14.1704452,25.0236667 27.169589,25.0239064 35.1610959,20.3786784 C39.1311986,18.0711696 41.1182877,15.0513158 41.1269178,12.0271462 Z" fill="url(#linearGradientSquareInsurance-7)" fill-rule="nonzero"></path>
							</g>
							<path d="M49.4499658,14.8271345 C57.4932534,19.471883 57.5361644,27.0026959 49.5446575,31.6474444 C41.5531507,36.292193 28.5540068,36.292193 20.5107192,31.6476842 C12.4669521,27.0026959 12.4245205,19.4721228 20.4160274,14.8273743 C28.407774,10.182386 41.4061986,10.1821462 49.4499658,14.8271345 Z" fill="#D07400" fill-rule="nonzero"></path>
							<g stroke-width="1" fill="none" fill-rule="evenodd" transform="translate(7.910959, 0.000000)">
								<path d="M54.0515068,15.8566901 C54.1306164,11.7811462 51.4763699,7.68714035 46.0914041,4.57761404 C35.5216438,-1.52611111 18.4411644,-1.52587135 7.94044521,4.5778538 C2.7069863,7.61976608 0.096130137,11.6034795 0.10140411,15.5903099 C0.10140411,15.5776023 0.100684932,15.564655 0.100684932,15.5519474 L0.0287671233,26.3857778 C0.0175,30.4112105 2.67366438,34.4426374 7.99270548,37.5140409 C18.5617466,43.6170468 35.6427055,43.6175263 46.1436644,37.5138012 C51.3603425,34.4814795 53.9716781,30.5135906 53.9829452,26.5399474 L54.054863,15.706117 C54.054863,15.7562281 54.0524658,15.8065789 54.0515068,15.8566901 Z" fill="#D8D8DA" fill-rule="nonzero"></path>
								<path d="M54.0551027,15.7058772 L53.9831849,26.5397076 C53.9719178,30.5135906 51.3608219,34.4817193 46.1439041,37.5135614 C35.6427055,43.6170468 18.5619863,43.616807 7.99294521,37.5138012 C2.67390411,34.4423977 0.017739726,30.4109708 0.0290068493,26.385538 L0.100924658,15.5517076 C0.0894178082,19.5771404 2.74582192,23.6085673 8.06486301,26.6799708 C18.6339041,32.7829766 35.714863,32.7834561 46.2158219,26.679731 C51.4325,23.6476491 54.0438356,19.6797602 54.0551027,15.7058772 Z" fill="#EBEFF8" fill-rule="nonzero"></path>
							</g>
							<g stroke-width="1" fill="none" fill-rule="evenodd" transform="translate(7.910959, 0.000000)">
								<path d="M46.0914041,4.57761404 C56.6604452,10.6806199 56.7167808,20.5762456 46.2158219,26.679731 C35.7146233,32.7832164 18.6339041,32.7829766 8.06486301,26.6799708 C-2.50489726,20.5764854 -2.5605137,10.6813392 7.94044521,4.5778538 C18.4414041,-1.52563158 35.5216438,-1.52611111 46.0914041,4.57761404 Z" fill="#DEE5F5" fill-rule="nonzero"></path>
								<path d="M8.16578767,37.6087485 C8.7260274,37.9269181 9.30400685,38.2283041 9.89828767,38.5124269 L9.89828767,27.6428713 C9.3044863,27.3568304 8.72554795,27.0554444 8.16578767,26.735117 L8.16578767,37.6087485 Z" fill="#DEE5F5" fill-rule="nonzero"></path>
								<path d="M18.8297603,30.4920117 C18.2474658,30.3826784 17.6685274,30.265193 17.0972603,30.1326023 L17.0972603,40.9820175 C17.6685274,41.1136491 18.247226,41.2311345 18.8297603,41.339269 L18.8297603,30.4920117 Z" fill="#DEE5F5" fill-rule="nonzero"></path>
								<path d="M23.2956164,31.0967018 C22.7152397,31.048269 22.1379795,30.9849708 21.5631164,30.9144795 L21.5631164,41.7574211 C22.1382192,41.8267135 22.7154795,41.8878538 23.2956164,41.9355673 L23.2956164,31.0967018 Z" fill="#DEE5F5" fill-rule="nonzero"></path>
								<path d="M14.3639041,29.3900468 C13.7765753,29.2068655 13.1990753,29.0097778 12.6314041,28.7997427 L12.6314041,39.6594678 C13.1995548,39.8680643 13.7763356,40.065152 14.3639041,40.2468947 L14.3639041,29.3900468 Z" fill="#DEE5F5" fill-rule="nonzero"></path>
								<path d="M48.3570548,36.057462 C48.9880137,35.5868012 49.5647945,35.0993567 50.0895548,34.5989649 L50.0895548,23.8339474 C49.5643151,24.3290643 48.9868151,24.8107544 48.3570548,25.2766199 L48.3570548,36.057462 Z" fill="#DEE5F5" fill-rule="nonzero"></path>
								<path d="M32.2266096,30.9801754 C31.6519863,31.0434737 31.0735274,31.0926257 30.4941096,31.134345 L30.4941096,41.9631404 C31.0737671,41.9207018 31.6519863,41.8713099 32.2266096,41.8070526 L32.2266096,30.9801754 Z" fill="#DEE5F5" fill-rule="nonzero"></path>
								<path d="M3.70017123,34.2956608 C4.22205479,34.8140351 4.79955479,35.3185029 5.43267123,35.8069064 L5.43267123,24.9179298 C4.79835616,24.4240117 4.22133562,23.9135497 3.70017123,23.3894211 L3.70017123,34.2956608 Z" fill="#DEE5F5" fill-rule="nonzero"></path>
								<path d="M45.6236986,27.0067719 C45.0622603,27.3139123 44.4852397,27.6052281 43.8911986,27.8792807 L43.8911986,38.6807427 C44.4857192,38.4047719 45.0625,38.1103392 45.6236986,37.8008012 L45.6236986,27.0067719 Z" fill="#DEE5F5" fill-rule="nonzero"></path>
								<path d="M36.6924658,30.2484094 C36.12,30.3735673 35.5432192,30.4898538 34.9599658,30.5919942 L34.9599658,41.4123977 C35.5432192,41.3097778 36.1202397,41.1930117 36.6924658,41.066655 L36.6924658,30.2484094 Z" fill="#DEE5F5" fill-rule="nonzero"></path>
								<path d="M41.1580822,28.9860409 C40.5899315,29.1867251 40.0126712,29.374462 39.4255822,29.5482924 L39.4255822,40.3612632 C40.012911,40.1859942 40.5899315,39.9956199 41.1580822,39.7934971 L41.1580822,28.9860409 Z" fill="#DEE5F5" fill-rule="nonzero"></path>
								<path d="M27.7609932,42.0820643 L27.7609932,31.249193 C27.1834932,31.256386 26.6057534,31.2556667 26.0284932,31.2417602 L26.0284932,42.0765497 C26.6057534,42.0894971 27.1834932,42.0902164 27.7609932,42.0820643 Z" fill="#DEE5F5" fill-rule="nonzero"></path>
							</g>
						</g>
					</g>
				</g>
			</g>
		</g>
	</svg>