<svg width="370" height="180" viewBox="0 0 370 180" fill="none" xmlns="http://www.w3.org/2000/svg">
		<g stroke="none" stroke-width="1" fill="none" fill-rule="evenodd" clip-path="url(#clip0)">
			<rect width="370" height="180" rx="10" fill="white"></rect>
			<rect y="-1" width="370" height="180" rx="7" fill="white"></rect>
			<mask id="mask0" mask-type="alpha" maskUnits="userSpaceOnUse" x="0" y="-1" width="370" height="180">
				<rect y="-1" width="370" height="180" rx="7" fill="white"></rect>
			</mask>
			<g mask="url(#mask0)">
			</g>
			<rect y="-1" width="370" height="180" rx="10" fill="white" class="liki"></rect>
			<path d="M207.5 144.5L367 80L370.155 169.253C370.355 174.911 365.822 179.606 360.161 179.606H170L207.5 144.5Z" fill="url(#paint0_linear)"></path>
			<path fill-rule="evenodd" clip-rule="evenodd" d="M336.349 78.6699L383.218 98.0238L395.35 85.5925L348.673 66.481L336.349 78.6699Z" fill="#A9BCDC"></path>
			<path fill-rule="evenodd" clip-rule="evenodd" d="M336.349 78.5945L383.204 97.9401L383.165 123.818L336.349 116.712V78.5945Z" fill="url(#paint1_linear)"></path>
			<path fill-rule="evenodd" clip-rule="evenodd" d="M287.136 95.6638L336.579 78.5945H322.354L272.528 96.0744L287.136 95.6638Z" fill="#E0E7F7"></path>
			<path fill-rule="evenodd" clip-rule="evenodd" d="M287.07 95.6132L337.157 78.2803V127.347L287.07 144.816V95.6132Z" fill="#A9BCDC"></path>
			<path fill-rule="evenodd" clip-rule="evenodd" d="M336.349 78.5945L383.204 97.9416V146.43L336.349 127.048V78.5945Z" fill="#D4DDEF"></path>
			<path fill-rule="evenodd" clip-rule="evenodd" d="M289.151 28.6179L322.705 19.6271C322.705 19.6271 328.407 31.5444 331.188 41.9239C333.97 52.3034 335.19 63.101 335.19 63.101L301.636 72.0918C301.636 72.0918 300.706 62.3766 297.634 50.9146C294.563 39.4527 289.151 28.6179 289.151 28.6179Z" fill="url(#paint2_linear)"></path>
			<path fill-rule="evenodd" clip-rule="evenodd" d="M308.074 45.6533L342.728 43.2301C342.728 43.2301 346.051 56.0165 346.801 66.7359C347.55 77.4554 346.688 88.2876 346.688 88.2876L312.035 90.7108C312.035 90.7108 312.975 80.9965 312.148 69.1591C311.32 57.3217 308.074 45.6533 308.074 45.6533Z" fill="url(#paint3_linear)"></path>
			<path fill-rule="evenodd" clip-rule="evenodd" d="M318.431 53.9091L307.066 49.8578L298.504 60.0613L309.992 63.9659L318.431 53.9091Z" fill="#172750"></path>
			<path fill-rule="evenodd" clip-rule="evenodd" d="M318.369 53.9822L307.012 49.9191L301.041 39.4424L312.521 43.3594L318.369 53.9822Z" fill="#29407A"></path>
			<path fill-rule="evenodd" clip-rule="evenodd" d="M301.103 39.3693L307.066 49.8578L298.504 60.0613L292.664 49.4261L301.103 39.3693Z" fill="#344B89"></path>
			<path fill-rule="evenodd" clip-rule="evenodd" d="M273.129 46.2622L269.086 52.951L274.38 59.4887L278.347 52.706L273.129 46.2622Z" fill="#172750"></path>
			<path fill-rule="evenodd" clip-rule="evenodd" d="M273.167 46.309L269.117 52.9916L261.74 55.5619L265.714 48.7857L273.167 46.309Z" fill="#344B89"></path>
			<path fill-rule="evenodd" clip-rule="evenodd" d="M261.702 55.5151L269.086 52.951L274.38 59.4887L266.92 61.9589L261.702 55.5151Z" fill="#29407A"></path>
			<path fill-rule="evenodd" clip-rule="evenodd" d="M366.351 91.8287L341.377 92.8772L333.589 116.847L358.685 115.421L366.351 91.8287Z" fill="#172750"></path>
			<path fill-rule="evenodd" clip-rule="evenodd" d="M366.29 92.0172L341.322 93.0368L321.728 77.538L346.819 76.1421L366.29 92.0172Z" fill="#29407A"></path>
			<path fill-rule="evenodd" clip-rule="evenodd" d="M321.777 77.5488L341.377 92.8772L333.589 116.847L314.123 100.942L321.777 77.5488Z" fill="#344B89"></path>
			<path fill-rule="evenodd" clip-rule="evenodd" d="M333.925 114.677L383.203 97.9763V147.365L333.925 164.219V114.677Z" fill="#A9BCDC"></path>
			<path fill-rule="evenodd" clip-rule="evenodd" d="M333.925 114.955L383.191 97.9763V125.851L356.546 135.943L333.925 114.955Z" fill="url(#paint4_linear)"></path>
			<path fill-rule="evenodd" clip-rule="evenodd" d="M333.89 114.684L383.188 97.9763L391.275 113.037L341.361 130.309L333.89 114.684Z" fill="#E0E7F7"></path>
			<path fill-rule="evenodd" clip-rule="evenodd" d="M287.07 95.5535L333.925 115.052V164.197L287.07 144.802V95.5535Z" fill="#DFE6F6"></path>
			<path fill-rule="evenodd" clip-rule="evenodd" d="M287.17 95.5535L333.935 114.655L333.886 140.483L287.07 121.048L287.17 95.5535Z" fill="url(#paint5_linear)"></path>
			<path fill-rule="evenodd" clip-rule="evenodd" d="M287.09 95.66L333.944 114.761L324.5 100.643L277.375 81.0173L287.09 95.66Z" fill="white"></path>
			<path d="M314.549 121.641C314.607 118.662 312.667 115.668 308.73 113.395C301.002 108.933 288.515 108.933 280.837 113.395C277.011 115.619 275.102 118.532 275.106 121.446C275.106 121.437 275.106 121.428 275.106 121.418V155.916C275.097 158.859 276.934 161.806 280.822 164.052C288.549 168.514 301.037 168.514 308.714 164.052C312.528 161.835 314.544 158.934 314.552 156.029V121.531C314.552 121.568 314.55 121.604 314.549 121.641Z" fill="#A66206"></path>
			<path d="M314.552 121.531V156.029C314.544 158.934 312.529 161.835 308.715 164.052C301.037 168.514 288.549 168.514 280.822 164.052C276.934 161.807 275.098 158.859 275.106 155.916V121.418C275.098 124.361 277.04 127.309 280.928 129.554C288.655 134.016 301.143 134.017 308.821 129.554C312.635 127.337 314.544 124.436 314.552 121.531Z" fill="url(#paint6_linear)"></path>
			<path d="M313.45 122.395L313.35 154.966C313.342 157.709 311.54 160.447 307.939 162.54C300.691 166.753 288.901 166.753 281.605 162.541C277.934 160.421 276.2 157.638 276.208 154.859V122.289C276.2 125.068 278.034 127.85 281.705 129.97C289 134.183 300.791 134.183 308.039 129.97C311.64 127.877 313.442 125.138 313.45 122.395Z" fill="url(#paint7_linear)"></path>
			<path d="M294.184 139.047C289.375 138.948 284.611 137.836 280.928 135.709C277.04 133.463 275.098 130.516 275.106 127.573L275 151.199C274.992 154.142 276.934 157.089 280.822 159.335C284.532 161.477 289.339 162.59 294.184 162.676V139.047Z" fill="white"></path>
			<path d="M289.253 147.891C287.636 147.613 286.069 147.212 284.592 146.69V142.118C283.289 141.656 282.058 141.101 280.928 140.449C280.648 140.287 280.38 140.121 280.119 139.952V144.524C278.983 143.785 278.037 142.983 277.287 142.138V147.257C278.043 148.085 278.989 148.87 280.119 149.592V153.438C280.346 153.583 280.581 153.726 280.822 153.865C281.982 154.535 283.25 155.104 284.592 155.573V151.727C286.07 152.242 287.638 152.636 289.253 152.909V147.891Z" fill="#5884C3"></path>
			<path d="M308.73 113.395C316.457 117.857 316.498 125.092 308.821 129.554C301.143 134.017 288.655 134.016 280.928 129.554C273.201 125.092 273.16 117.858 280.837 113.395C288.515 108.933 301.002 108.933 308.73 113.395Z" fill="url(#paint8_linear)"></path>
			<path d="M306.37 111.235C306.404 109.481 305.262 107.72 302.945 106.382C298.398 103.756 291.049 103.756 286.532 106.382C284.28 107.691 283.157 109.405 283.159 111.12C283.159 111.114 283.159 111.109 283.159 111.104L283.128 118.246C283.123 119.978 284.266 121.712 286.554 123.033C291.101 125.659 298.45 125.659 302.968 123.033C305.212 121.729 306.335 120.022 306.34 118.312L306.371 111.17C306.371 111.191 306.37 111.213 306.37 111.235Z" fill="#A66206"></path>
			<path d="M306.371 111.17L306.34 118.312C306.335 120.022 305.212 121.729 302.967 123.034C298.449 125.659 291.101 125.659 286.554 123.034C284.266 121.712 283.123 119.978 283.128 118.246L283.159 111.104C283.154 112.835 284.297 114.57 286.585 115.891C291.132 118.517 298.481 118.517 302.998 115.891C305.243 114.587 306.366 112.88 306.371 111.17Z" fill="url(#paint9_linear)"></path>
			<path d="M302.945 106.382C307.492 109.008 307.516 113.265 302.998 115.891C298.481 118.517 291.132 118.517 286.585 115.891C282.038 113.265 282.014 109.008 286.531 106.382C291.049 103.756 298.397 103.756 302.945 106.382Z" fill="#D07400"></path>
			<path d="M310.018 106.964C310.063 104.66 308.563 102.346 305.518 100.588C299.543 97.1373 289.887 97.1374 283.951 100.588C280.992 102.308 279.516 104.56 279.519 106.814C279.519 106.806 279.519 106.799 279.519 106.792L279.478 112.916C279.472 115.192 280.973 117.471 283.98 119.207C289.955 122.658 299.611 122.658 305.548 119.207C308.497 117.493 309.973 115.25 309.98 113.004L310.02 106.879C310.02 106.907 310.019 106.936 310.018 106.964Z" fill="#D8D8DA"></path>
			<path d="M310.02 106.879L309.98 113.003C309.973 115.25 308.497 117.493 305.548 119.207C299.611 122.658 289.955 122.657 283.98 119.207C280.973 117.471 279.472 115.192 279.478 112.916L279.519 106.792C279.512 109.067 281.014 111.346 284.021 113.083C289.996 116.533 299.652 116.533 305.589 113.083C308.538 111.369 310.014 109.125 310.02 106.879Z" fill="#EBEFF8"></path>
			<path d="M305.518 100.588C311.493 104.038 311.525 109.632 305.589 113.083C299.652 116.533 289.996 116.533 284.021 113.083C278.046 109.632 278.014 104.039 283.951 100.588C289.887 97.1378 299.543 97.1375 305.518 100.588Z" fill="#DEE5F5"></path>
			<path d="M284.078 119.261C284.395 119.441 284.722 119.611 285.058 119.772V113.627C284.722 113.465 284.395 113.295 284.078 113.114V119.261Z" fill="#DEE5F5"></path>
			<path d="M290.107 115.238C289.778 115.176 289.45 115.11 289.127 115.035V121.168C289.45 121.242 289.778 121.309 290.107 121.37V115.238Z" fill="#DEE5F5"></path>
			<path d="M292.631 115.58C292.303 115.552 291.977 115.516 291.652 115.477V121.606C291.977 121.645 292.303 121.68 292.631 121.707V115.58Z" fill="#DEE5F5"></path>
			<path d="M287.582 114.615C287.25 114.511 286.924 114.4 286.603 114.281V120.42C286.924 120.538 287.25 120.65 287.582 120.753V114.615Z" fill="#DEE5F5"></path>
			<path d="M306.799 118.384C307.156 118.118 307.482 117.842 307.778 117.56V111.474C307.482 111.754 307.155 112.026 306.799 112.289V118.384Z" fill="#DEE5F5"></path>
			<path d="M297.68 115.514C297.355 115.55 297.028 115.577 296.701 115.601V121.723C297.029 121.699 297.355 121.671 297.68 121.635V115.514Z" fill="#DEE5F5"></path>
			<path d="M281.554 117.388C281.849 117.681 282.175 117.966 282.533 118.242V112.087C282.175 111.808 281.848 111.519 281.554 111.223V117.388Z" fill="#DEE5F5"></path>
			<path d="M305.254 113.268C304.936 113.441 304.61 113.606 304.274 113.761V119.867C304.611 119.711 304.937 119.545 305.254 119.37V113.268Z" fill="#DEE5F5"></path>
			<path d="M300.205 115.1C299.881 115.171 299.555 115.237 299.225 115.295V121.412C299.555 121.354 299.881 121.288 300.205 121.216V115.1Z" fill="#DEE5F5"></path>
			<path d="M302.729 114.386C302.408 114.5 302.082 114.606 301.75 114.704V120.817C302.082 120.718 302.408 120.61 302.729 120.496V114.386Z" fill="#DEE5F5"></path>
			<path d="M295.156 121.79V115.666C294.829 115.67 294.503 115.669 294.176 115.662V121.787C294.503 121.794 294.829 121.794 295.156 121.79Z" fill="#DEE5F5"></path>

			<path d="M207.5 144.5L367 80L370.155 169.253C370.355 174.911 365.822 179.606 360.161 179.606H170L207.5 144.5Z" fill="url(#paint10_linear)"></path>
			<path fill-rule="evenodd" clip-rule="evenodd" d="M336.349 78.6699L383.218 98.0238L395.35 85.5925L348.673 66.481L336.349 78.6699Z" fill="#A9BCDC"></path>
			<path fill-rule="evenodd" clip-rule="evenodd" d="M336.349 78.5945L383.204 97.9401L383.165 123.818L336.349 116.712V78.5945Z" fill="url(#paint11_linear)"></path>
			<path fill-rule="evenodd" clip-rule="evenodd" d="M287.136 95.6638L336.579 78.5945H322.354L272.528 96.0744L287.136 95.6638Z" fill="#E0E7F7"></path>
			<path fill-rule="evenodd" clip-rule="evenodd" d="M287.07 95.6132L337.157 78.2803V127.347L287.07 144.816V95.6132Z" fill="#A9BCDC"></path>
			<path fill-rule="evenodd" clip-rule="evenodd" d="M336.349 78.5945L383.204 97.9416V146.43L336.349 127.048V78.5945Z" fill="#D4DDEF"></path>
			<path fill-rule="evenodd" clip-rule="evenodd" d="M289.151 28.6179L322.705 19.6271C322.705 19.6271 328.407 31.5444 331.188 41.9239C333.97 52.3034 335.19 63.101 335.19 63.101L301.636 72.0918C301.636 72.0918 300.706 62.3766 297.634 50.9146C294.563 39.4527 289.151 28.6179 289.151 28.6179Z" fill="url(#paint12_linear)"></path>
			<path fill-rule="evenodd" clip-rule="evenodd" d="M308.074 45.6533L342.728 43.2301C342.728 43.2301 346.051 56.0165 346.801 66.7359C347.55 77.4554 346.688 88.2876 346.688 88.2876L312.035 90.7108C312.035 90.7108 312.975 80.9965 312.148 69.1591C311.32 57.3217 308.074 45.6533 308.074 45.6533Z" fill="url(#paint13_linear)"></path>
			<path fill-rule="evenodd" clip-rule="evenodd" d="M318.431 53.9091L307.066 49.8578L298.504 60.0613L309.992 63.9659L318.431 53.9091Z" fill="#172750"></path>
			<path fill-rule="evenodd" clip-rule="evenodd" d="M318.369 53.9822L307.012 49.9191L301.041 39.4424L312.521 43.3594L318.369 53.9822Z" fill="#29407A"></path>
			<path fill-rule="evenodd" clip-rule="evenodd" d="M301.103 39.3693L307.066 49.8578L298.504 60.0613L292.664 49.4261L301.103 39.3693Z" fill="#344B89"></path>
			<path fill-rule="evenodd" clip-rule="evenodd" d="M273.129 46.2622L269.086 52.951L274.38 59.4887L278.347 52.706L273.129 46.2622Z" fill="#172750"></path>
			<path fill-rule="evenodd" clip-rule="evenodd" d="M273.167 46.309L269.117 52.9916L261.74 55.5619L265.714 48.7857L273.167 46.309Z" fill="#344B89"></path>
			<path fill-rule="evenodd" clip-rule="evenodd" d="M261.702 55.5151L269.086 52.951L274.38 59.4887L266.92 61.9589L261.702 55.5151Z" fill="#29407A"></path>
			<path fill-rule="evenodd" clip-rule="evenodd" d="M366.351 91.8287L341.377 92.8772L333.589 116.847L358.685 115.421L366.351 91.8287Z" fill="#172750"></path>
			<path fill-rule="evenodd" clip-rule="evenodd" d="M366.29 92.0172L341.322 93.0368L321.728 77.538L346.819 76.1421L366.29 92.0172Z" fill="#29407A"></path>
			<path fill-rule="evenodd" clip-rule="evenodd" d="M321.777 77.5488L341.377 92.8772L333.589 116.847L314.123 100.942L321.777 77.5488Z" fill="#344B89"></path>
			<path fill-rule="evenodd" clip-rule="evenodd" d="M333.925 114.677L383.203 97.9763V147.365L333.925 164.219V114.677Z" fill="#A9BCDC"></path>
			<path fill-rule="evenodd" clip-rule="evenodd" d="M333.925 114.955L383.191 97.9763V125.851L356.546 135.943L333.925 114.955Z" fill="url(#paint14_linear)"></path>
			<path fill-rule="evenodd" clip-rule="evenodd" d="M333.89 114.684L383.188 97.9763L391.275 113.037L341.361 130.309L333.89 114.684Z" fill="#E0E7F7"></path>
			<path fill-rule="evenodd" clip-rule="evenodd" d="M287.07 95.5535L333.925 115.052V164.197L287.07 144.802V95.5535Z" fill="#DFE6F6"></path>
			<path fill-rule="evenodd" clip-rule="evenodd" d="M287.17 95.5535L333.935 114.655L333.886 140.483L287.07 121.048L287.17 95.5535Z" fill="url(#paint15_linear)"></path>
			<path fill-rule="evenodd" clip-rule="evenodd" d="M287.09 95.66L333.944 114.761L324.5 100.643L277.375 81.0173L287.09 95.66Z" fill="white"></path>
			<path d="M314.549 121.641C314.607 118.662 312.667 115.668 308.73 113.395C301.002 108.933 288.515 108.933 280.837 113.395C277.011 115.619 275.102 118.532 275.106 121.446C275.106 121.437 275.106 121.428 275.106 121.418V155.916C275.097 158.859 276.934 161.806 280.822 164.052C288.549 168.514 301.037 168.514 308.714 164.052C312.528 161.835 314.544 158.934 314.552 156.029V121.531C314.552 121.568 314.55 121.604 314.549 121.641Z" fill="#A66206"></path>
			<path d="M314.552 121.531V156.029C314.544 158.934 312.529 161.835 308.715 164.052C301.037 168.514 288.549 168.514 280.822 164.052C276.934 161.807 275.098 158.859 275.106 155.916V121.418C275.098 124.361 277.04 127.309 280.928 129.554C288.655 134.016 301.143 134.017 308.821 129.554C312.635 127.337 314.544 124.436 314.552 121.531Z" fill="url(#paint16_linear)"></path>
			<path d="M313.45 122.395L313.35 154.966C313.342 157.709 311.54 160.447 307.939 162.54C300.691 166.753 288.901 166.753 281.605 162.541C277.934 160.421 276.2 157.638 276.208 154.859V122.289C276.2 125.068 278.034 127.85 281.705 129.97C289 134.183 300.791 134.183 308.039 129.97C311.64 127.877 313.442 125.138 313.45 122.395Z" fill="url(#paint17_linear)"></path>
			<path d="M294.184 139.047C289.375 138.948 284.611 137.836 280.928 135.709C277.04 133.463 275.098 130.516 275.106 127.573L275 151.199C274.992 154.142 276.934 157.089 280.822 159.335C284.532 161.477 289.339 162.59 294.184 162.676V139.047Z" fill="white"></path>
			<path d="M289.253 147.891C287.636 147.613 286.069 147.212 284.592 146.69V142.118C283.289 141.656 282.058 141.101 280.928 140.449C280.648 140.287 280.38 140.121 280.119 139.952V144.524C278.983 143.785 278.037 142.983 277.287 142.138V147.257C278.043 148.085 278.989 148.87 280.119 149.592V153.438C280.346 153.583 280.581 153.726 280.822 153.865C281.982 154.535 283.25 155.104 284.592 155.573V151.727C286.07 152.242 287.638 152.636 289.253 152.909V147.891Z" fill="#5884C3"></path>
			<path d="M308.73 113.395C316.457 117.857 316.498 125.092 308.821 129.554C301.143 134.017 288.655 134.016 280.928 129.554C273.201 125.092 273.16 117.858 280.837 113.395C288.515 108.933 301.002 108.933 308.73 113.395Z" fill="url(#paint18_linear)"></path>
			<path d="M306.37 111.235C306.404 109.481 305.262 107.72 302.945 106.382C298.398 103.756 291.049 103.756 286.532 106.382C284.28 107.691 283.157 109.405 283.159 111.12C283.159 111.114 283.159 111.109 283.159 111.104L283.128 118.246C283.123 119.978 284.266 121.712 286.554 123.033C291.101 125.659 298.45 125.659 302.968 123.033C305.212 121.729 306.335 120.022 306.34 118.312L306.371 111.17C306.371 111.191 306.37 111.213 306.37 111.235Z" fill="#A66206"></path>
			<path d="M306.371 111.17L306.34 118.312C306.335 120.022 305.212 121.729 302.967 123.034C298.449 125.659 291.101 125.659 286.554 123.034C284.266 121.712 283.123 119.978 283.128 118.246L283.159 111.104C283.154 112.835 284.297 114.57 286.585 115.891C291.132 118.517 298.481 118.517 302.998 115.891C305.243 114.587 306.366 112.88 306.371 111.17Z" fill="url(#paint19_linear)"></path>
			<path d="M302.945 106.382C307.492 109.008 307.516 113.265 302.998 115.891C298.481 118.517 291.132 118.517 286.585 115.891C282.038 113.265 282.014 109.008 286.531 106.382C291.049 103.756 298.397 103.756 302.945 106.382Z" fill="#D07400"></path>
			<path d="M310.018 106.964C310.063 104.66 308.563 102.346 305.518 100.588C299.543 97.1373 289.887 97.1374 283.951 100.588C280.992 102.308 279.516 104.56 279.519 106.814C279.519 106.806 279.519 106.799 279.519 106.792L279.478 112.916C279.472 115.192 280.973 117.471 283.98 119.207C289.955 122.658 299.611 122.658 305.548 119.207C308.497 117.493 309.973 115.25 309.98 113.004L310.02 106.879C310.02 106.907 310.019 106.936 310.018 106.964Z" fill="#D8D8DA"></path>
			<path d="M310.02 106.879L309.98 113.003C309.973 115.25 308.497 117.493 305.548 119.207C299.611 122.658 289.955 122.657 283.98 119.207C280.973 117.471 279.472 115.192 279.478 112.916L279.519 106.792C279.512 109.067 281.014 111.346 284.021 113.083C289.996 116.533 299.652 116.533 305.589 113.083C308.538 111.369 310.014 109.125 310.02 106.879Z" fill="#EBEFF8"></path>
			<path d="M305.518 100.588C311.493 104.038 311.525 109.632 305.589 113.083C299.652 116.533 289.996 116.533 284.021 113.083C278.046 109.632 278.014 104.039 283.951 100.588C289.887 97.1378 299.543 97.1375 305.518 100.588Z" fill="#DEE5F5"></path>
			<path d="M284.078 119.261C284.395 119.441 284.722 119.611 285.058 119.772V113.627C284.722 113.465 284.395 113.295 284.078 113.114V119.261Z" fill="#DEE5F5"></path>
			<path d="M290.107 115.238C289.778 115.176 289.45 115.11 289.127 115.035V121.168C289.45 121.242 289.778 121.309 290.107 121.37V115.238Z" fill="#DEE5F5"></path>
			<path d="M292.631 115.58C292.303 115.552 291.977 115.516 291.652 115.477V121.606C291.977 121.645 292.303 121.68 292.631 121.707V115.58Z" fill="#DEE5F5"></path>
			<path d="M287.582 114.615C287.25 114.511 286.924 114.4 286.603 114.281V120.42C286.924 120.538 287.25 120.65 287.582 120.753V114.615Z" fill="#DEE5F5"></path>
			<path d="M306.799 118.384C307.156 118.118 307.482 117.842 307.778 117.56V111.474C307.482 111.754 307.155 112.026 306.799 112.289V118.384Z" fill="#DEE5F5"></path>
			<path d="M297.68 115.514C297.355 115.55 297.028 115.577 296.701 115.601V121.723C297.029 121.699 297.355 121.671 297.68 121.635V115.514Z" fill="#DEE5F5"></path>
			<path d="M281.554 117.388C281.849 117.681 282.175 117.966 282.533 118.242V112.087C282.175 111.808 281.848 111.519 281.554 111.223V117.388Z" fill="#DEE5F5"></path>
			<path d="M305.254 113.268C304.936 113.441 304.61 113.606 304.274 113.761V119.867C304.611 119.711 304.937 119.545 305.254 119.37V113.268Z" fill="#DEE5F5"></path>
			<path d="M300.205 115.1C299.881 115.171 299.555 115.237 299.225 115.295V121.412C299.555 121.354 299.881 121.288 300.205 121.216V115.1Z" fill="#DEE5F5"></path>
			<path d="M302.729 114.386C302.408 114.5 302.082 114.606 301.75 114.704V120.817C302.082 120.718 302.408 120.61 302.729 120.496V114.386Z" fill="#DEE5F5"></path>
			<path d="M295.156 121.79V115.666C294.829 115.67 294.503 115.669 294.176 115.662V121.787C294.503 121.794 294.829 121.794 295.156 121.79Z" fill="#DEE5F5"></path>
			<path d="M207.5 144.5L367 80L370.155 169.253C370.355 174.911 365.822 179.606 360.161 179.606H170L207.5 144.5Z" fill="url(#paint20_linear)"></path>
			<path fill-rule="evenodd" clip-rule="evenodd" d="M336.349 78.6699L383.218 98.0238L395.35 85.5925L348.673 66.481L336.349 78.6699Z" fill="#A9BCDC"></path>
			<path fill-rule="evenodd" clip-rule="evenodd" d="M336.349 78.5945L383.204 97.9401L383.165 123.818L336.349 116.712V78.5945Z" fill="url(#paint21_linear)"></path>
			<path fill-rule="evenodd" clip-rule="evenodd" d="M287.136 95.6638L336.579 78.5945H322.354L272.528 96.0744L287.136 95.6638Z" fill="#E0E7F7"></path>
			<path fill-rule="evenodd" clip-rule="evenodd" d="M287.07 95.6132L337.157 78.2803V127.347L287.07 144.816V95.6132Z" fill="#A9BCDC"></path>
			<path fill-rule="evenodd" clip-rule="evenodd" d="M336.349 78.5945L383.204 97.9416V146.43L336.349 127.048V78.5945Z" fill="#D4DDEF"></path>
			<path fill-rule="evenodd" clip-rule="evenodd" d="M289.151 28.6179L322.705 19.6271C322.705 19.6271 328.407 31.5444 331.188 41.9239C333.97 52.3034 335.19 63.101 335.19 63.101L301.636 72.0918C301.636 72.0918 300.706 62.3766 297.634 50.9146C294.563 39.4527 289.151 28.6179 289.151 28.6179Z" fill="url(#paint22_linear)"></path>
			<path fill-rule="evenodd" clip-rule="evenodd" d="M308.074 45.6533L342.728 43.2301C342.728 43.2301 346.051 56.0165 346.801 66.7359C347.55 77.4554 346.688 88.2876 346.688 88.2876L312.035 90.7108C312.035 90.7108 312.975 80.9965 312.148 69.1591C311.32 57.3217 308.074 45.6533 308.074 45.6533Z" fill="url(#paint23_linear)"></path>
			<path fill-rule="evenodd" clip-rule="evenodd" d="M318.431 53.9091L307.066 49.8578L298.504 60.0613L309.992 63.9659L318.431 53.9091Z" fill="#172750"></path>
			<path fill-rule="evenodd" clip-rule="evenodd" d="M318.369 53.9822L307.012 49.9191L301.041 39.4424L312.521 43.3594L318.369 53.9822Z" fill="#29407A"></path>
			<path fill-rule="evenodd" clip-rule="evenodd" d="M301.103 39.3693L307.066 49.8578L298.504 60.0613L292.664 49.4261L301.103 39.3693Z" fill="#344B89"></path>
			<path fill-rule="evenodd" clip-rule="evenodd" d="M273.129 46.2622L269.086 52.951L274.38 59.4887L278.347 52.706L273.129 46.2622Z" fill="#172750"></path>
			<path fill-rule="evenodd" clip-rule="evenodd" d="M273.167 46.309L269.117 52.9916L261.74 55.5619L265.714 48.7857L273.167 46.309Z" fill="#344B89"></path>
			<path fill-rule="evenodd" clip-rule="evenodd" d="M261.702 55.5151L269.086 52.951L274.38 59.4887L266.92 61.9589L261.702 55.5151Z" fill="#29407A"></path>
			<path fill-rule="evenodd" clip-rule="evenodd" d="M366.351 91.8287L341.377 92.8772L333.589 116.847L358.685 115.421L366.351 91.8287Z" fill="#172750"></path>
			<path fill-rule="evenodd" clip-rule="evenodd" d="M366.29 92.0172L341.322 93.0368L321.728 77.538L346.819 76.1421L366.29 92.0172Z" fill="#29407A"></path>
			<path fill-rule="evenodd" clip-rule="evenodd" d="M321.777 77.5488L341.377 92.8772L333.589 116.847L314.123 100.942L321.777 77.5488Z" fill="#344B89"></path>
			<path fill-rule="evenodd" clip-rule="evenodd" d="M333.925 114.677L383.203 97.9763V147.365L333.925 164.219V114.677Z" fill="#A9BCDC"></path>
			<path fill-rule="evenodd" clip-rule="evenodd" d="M333.925 114.955L383.191 97.9763V125.851L356.546 135.943L333.925 114.955Z" fill="url(#paint24_linear)"></path>
			<path fill-rule="evenodd" clip-rule="evenodd" d="M333.89 114.684L383.188 97.9763L391.275 113.037L341.361 130.309L333.89 114.684Z" fill="#E0E7F7"></path>
			<path fill-rule="evenodd" clip-rule="evenodd" d="M287.07 95.5535L333.925 115.052V164.197L287.07 144.802V95.5535Z" fill="#DFE6F6"></path>
			<path fill-rule="evenodd" clip-rule="evenodd" d="M287.17 95.5535L333.935 114.655L333.886 140.483L287.07 121.048L287.17 95.5535Z" fill="url(#paint25_linear)"></path>
			<path fill-rule="evenodd" clip-rule="evenodd" d="M287.09 95.66L333.944 114.761L324.5 100.643L277.375 81.0173L287.09 95.66Z" fill="white"></path>
			<path d="M314.549 121.641C314.607 118.662 312.667 115.668 308.73 113.395C301.002 108.933 288.515 108.933 280.837 113.395C277.011 115.619 275.102 118.532 275.106 121.446C275.106 121.437 275.106 121.428 275.106 121.418V155.916C275.097 158.859 276.934 161.806 280.822 164.052C288.549 168.514 301.037 168.514 308.714 164.052C312.528 161.835 314.544 158.934 314.552 156.029V121.531C314.552 121.568 314.55 121.604 314.549 121.641Z" fill="#A66206"></path>
			<path d="M314.552 121.531V156.029C314.544 158.934 312.529 161.835 308.715 164.052C301.037 168.514 288.549 168.514 280.822 164.052C276.934 161.807 275.098 158.859 275.106 155.916V121.418C275.098 124.361 277.04 127.309 280.928 129.554C288.655 134.016 301.143 134.017 308.821 129.554C312.635 127.337 314.544 124.436 314.552 121.531Z" fill="url(#paint26_linear)"></path>
			<path d="M313.45 122.395L313.35 154.966C313.342 157.709 311.54 160.447 307.939 162.54C300.691 166.753 288.901 166.753 281.605 162.541C277.934 160.421 276.2 157.638 276.208 154.859V122.289C276.2 125.068 278.034 127.85 281.705 129.97C289 134.183 300.791 134.183 308.039 129.97C311.64 127.877 313.442 125.138 313.45 122.395Z" fill="url(#paint27_linear)"></path>
			<path d="M294.184 139.047C289.375 138.948 284.611 137.836 280.928 135.709C277.04 133.463 275.098 130.516 275.106 127.573L275 151.199C274.992 154.142 276.934 157.089 280.822 159.335C284.532 161.477 289.339 162.59 294.184 162.676V139.047Z" fill="white"></path>
			<path d="M289.253 147.891C287.636 147.613 286.069 147.212 284.592 146.69V142.118C283.289 141.656 282.058 141.101 280.928 140.449C280.648 140.287 280.38 140.121 280.119 139.952V144.524C278.983 143.785 278.037 142.983 277.287 142.138V147.257C278.043 148.085 278.989 148.87 280.119 149.592V153.438C280.346 153.583 280.581 153.726 280.822 153.865C281.982 154.535 283.25 155.104 284.592 155.573V151.727C286.07 152.242 287.638 152.636 289.253 152.909V147.891Z" fill="#5884C3"></path>
			<path d="M308.73 113.395C316.457 117.857 316.498 125.092 308.821 129.554C301.143 134.017 288.655 134.016 280.928 129.554C273.201 125.092 273.16 117.858 280.837 113.395C288.515 108.933 301.002 108.933 308.73 113.395Z" fill="url(#paint28_linear)"></path>
			<path d="M306.37 111.235C306.404 109.481 305.262 107.72 302.945 106.382C298.398 103.756 291.049 103.756 286.532 106.382C284.28 107.691 283.157 109.405 283.159 111.12C283.159 111.114 283.159 111.109 283.159 111.104L283.128 118.246C283.123 119.978 284.266 121.712 286.554 123.033C291.101 125.659 298.45 125.659 302.968 123.033C305.212 121.729 306.335 120.022 306.34 118.312L306.371 111.17C306.371 111.191 306.37 111.213 306.37 111.235Z" fill="#A66206"></path>
			<path d="M306.371 111.17L306.34 118.312C306.335 120.022 305.212 121.729 302.967 123.034C298.449 125.659 291.101 125.659 286.554 123.034C284.266 121.712 283.123 119.978 283.128 118.246L283.159 111.104C283.154 112.835 284.297 114.57 286.585 115.891C291.132 118.517 298.481 118.517 302.998 115.891C305.243 114.587 306.366 112.88 306.371 111.17Z" fill="url(#paint29_linear)"></path>
			<path d="M302.945 106.382C307.492 109.008 307.516 113.265 302.998 115.891C298.481 118.517 291.132 118.517 286.585 115.891C282.038 113.265 282.014 109.008 286.531 106.382C291.049 103.756 298.397 103.756 302.945 106.382Z" fill="#D07400"></path>
			<path d="M310.018 106.964C310.063 104.66 308.563 102.346 305.518 100.588C299.543 97.1373 289.887 97.1374 283.951 100.588C280.992 102.308 279.516 104.56 279.519 106.814C279.519 106.806 279.519 106.799 279.519 106.792L279.478 112.916C279.472 115.192 280.973 117.471 283.98 119.207C289.955 122.658 299.611 122.658 305.548 119.207C308.497 117.493 309.973 115.25 309.98 113.004L310.02 106.879C310.02 106.907 310.019 106.936 310.018 106.964Z" fill="#D8D8DA"></path>
			<path d="M310.02 106.879L309.98 113.003C309.973 115.25 308.497 117.493 305.548 119.207C299.611 122.658 289.955 122.657 283.98 119.207C280.973 117.471 279.472 115.192 279.478 112.916L279.519 106.792C279.512 109.067 281.014 111.346 284.021 113.083C289.996 116.533 299.652 116.533 305.589 113.083C308.538 111.369 310.014 109.125 310.02 106.879Z" fill="#EBEFF8"></path>
			<path d="M305.518 100.588C311.493 104.038 311.525 109.632 305.589 113.083C299.652 116.533 289.996 116.533 284.021 113.083C278.046 109.632 278.014 104.039 283.951 100.588C289.887 97.1378 299.543 97.1375 305.518 100.588Z" fill="#DEE5F5"></path>
			<path d="M284.078 119.261C284.395 119.441 284.722 119.611 285.058 119.772V113.627C284.722 113.465 284.395 113.295 284.078 113.114V119.261Z" fill="#DEE5F5"></path>
			<path d="M290.107 115.238C289.778 115.176 289.45 115.11 289.127 115.035V121.168C289.45 121.242 289.778 121.309 290.107 121.37V115.238Z" fill="#DEE5F5"></path>
			<path d="M292.631 115.58C292.303 115.552 291.977 115.516 291.652 115.477V121.606C291.977 121.645 292.303 121.68 292.631 121.707V115.58Z" fill="#DEE5F5"></path>
			<path d="M287.582 114.615C287.25 114.511 286.924 114.4 286.603 114.281V120.42C286.924 120.538 287.25 120.65 287.582 120.753V114.615Z" fill="#DEE5F5"></path>
			<path d="M306.799 118.384C307.156 118.118 307.482 117.842 307.778 117.56V111.474C307.482 111.754 307.155 112.026 306.799 112.289V118.384Z" fill="#DEE5F5"></path>
			<path d="M297.68 115.514C297.355 115.55 297.028 115.577 296.701 115.601V121.723C297.029 121.699 297.355 121.671 297.68 121.635V115.514Z" fill="#DEE5F5"></path>
			<path d="M281.554 117.388C281.849 117.681 282.175 117.966 282.533 118.242V112.087C282.175 111.808 281.848 111.519 281.554 111.223V117.388Z" fill="#DEE5F5"></path>
			<path d="M305.254 113.268C304.936 113.441 304.61 113.606 304.274 113.761V119.867C304.611 119.711 304.937 119.545 305.254 119.37V113.268Z" fill="#DEE5F5"></path>
			<path d="M300.205 115.1C299.881 115.171 299.555 115.237 299.225 115.295V121.412C299.555 121.354 299.881 121.288 300.205 121.216V115.1Z" fill="#DEE5F5"></path>
			<path d="M302.729 114.386C302.408 114.5 302.082 114.606 301.75 114.704V120.817C302.082 120.718 302.408 120.61 302.729 120.496V114.386Z" fill="#DEE5F5"></path>
			<path d="M295.156 121.79V115.666C294.829 115.67 294.503 115.669 294.176 115.662V121.787C294.503 121.794 294.829 121.794 295.156 121.79Z" fill="#DEE5F5"></path>
		</g>
		<defs xmlns="http://www.w3.org/2000/svg">
			<linearGradient id="paint0_linear" x1="30.9457" y1="107.4" x2="56.2422" y2="256.531" gradientUnits="userSpaceOnUse">
				<stop stop-color="#93A9D6"></stop>
				<stop offset="1" stop-color="#E0E7F7"></stop>
			</linearGradient>
			<linearGradient id="paint1_linear" x1="350.752" y1="73.9335" x2="331.329" y2="106.502" gradientUnits="userSpaceOnUse">
				<stop stop-color="#E8EDF7" stop-opacity="0.01"></stop>
				<stop offset="1" stop-color="#C2CCE1"></stop>
			</linearGradient>
			<linearGradient id="paint2_linear" x1="251.948" y1="16.2881" x2="299.774" y2="91.4572" gradientUnits="userSpaceOnUse">
				<stop stop-color="#93A9D6"></stop>
				<stop offset="1" stop-color="#E0E7F7"></stop>
			</linearGradient>
			<linearGradient id="paint3_linear" x1="299.103" y1="51.5998" x2="315.515" y2="104.336" gradientUnits="userSpaceOnUse">
				<stop stop-color="#93A9D6"></stop>
				<stop offset="1" stop-color="#E0E7F7"></stop>
			</linearGradient>
			<linearGradient id="paint4_linear" x1="444.801" y1="130.029" x2="397.932" y2="72.12" gradientUnits="userSpaceOnUse">
				<stop stop-color="#C5D5EA" stop-opacity="0.01"></stop>
				<stop offset="1" stop-color="#93AAD0"></stop>
			</linearGradient>
			<linearGradient id="paint5_linear" x1="291.862" y1="164.916" x2="346.612" y2="137.005" gradientUnits="userSpaceOnUse">
				<stop stop-color="#E8EDF7" stop-opacity="0.01"></stop>
				<stop offset="1" stop-color="#CCD6EC"></stop>
			</linearGradient>
			<linearGradient id="paint6_linear" x1="242.777" y1="178.187" x2="316.174" y2="191.131" gradientUnits="userSpaceOnUse">
				<stop stop-color="#6BA3DE"></stop>
				<stop offset="1" stop-color="#202873"></stop>
			</linearGradient>
			<linearGradient id="paint7_linear" x1="195.914" y1="191.592" x2="310.889" y2="211.726" gradientUnits="userSpaceOnUse">
				<stop stop-color="#6BA3DE"></stop>
				<stop offset="1" stop-color="#202873"></stop>
			</linearGradient>
			<linearGradient id="paint8_linear" x1="242.777" y1="138.263" x2="309.993" y2="162.114" gradientUnits="userSpaceOnUse">
				<stop stop-color="#6BA3DE"></stop>
				<stop offset="1" stop-color="#202873"></stop>
			</linearGradient>
			<linearGradient id="paint9_linear" x1="216.39" y1="132.653" x2="291.569" y2="165.628" gradientUnits="userSpaceOnUse">
				<stop stop-color="#6BA3DE"></stop>
				<stop offset="1" stop-color="#202873"></stop>
			</linearGradient>
			<linearGradient id="paint10_linear" x1="30.9457" y1="107.4" x2="56.2422" y2="256.531" gradientUnits="userSpaceOnUse">
				<stop stop-color="#93A9D6"></stop>
				<stop offset="1" stop-color="#E0E7F7"></stop>
			</linearGradient>
			<linearGradient id="paint11_linear" x1="350.752" y1="73.9335" x2="331.329" y2="106.502" gradientUnits="userSpaceOnUse">
				<stop stop-color="#E8EDF7" stop-opacity="0.01"></stop>
				<stop offset="1" stop-color="#C2CCE1"></stop>
			</linearGradient>
			<linearGradient id="paint12_linear" x1="251.948" y1="16.2881" x2="299.774" y2="91.4572" gradientUnits="userSpaceOnUse">
				<stop stop-color="#93A9D6"></stop>
				<stop offset="1" stop-color="#E0E7F7"></stop>
			</linearGradient>
			<linearGradient id="paint13_linear" x1="299.103" y1="51.5998" x2="315.515" y2="104.336" gradientUnits="userSpaceOnUse">
				<stop stop-color="#93A9D6"></stop>
				<stop offset="1" stop-color="#E0E7F7"></stop>
			</linearGradient>
			<linearGradient id="paint14_linear" x1="444.801" y1="130.029" x2="397.932" y2="72.12" gradientUnits="userSpaceOnUse">
				<stop stop-color="#C5D5EA" stop-opacity="0.01"></stop>
				<stop offset="1" stop-color="#93AAD0"></stop>
			</linearGradient>
			<linearGradient id="paint15_linear" x1="291.862" y1="164.916" x2="346.612" y2="137.005" gradientUnits="userSpaceOnUse">
				<stop stop-color="#E8EDF7" stop-opacity="0.01"></stop>
				<stop offset="1" stop-color="#CCD6EC"></stop>
			</linearGradient>
			<linearGradient id="paint16_linear" x1="242.777" y1="178.187" x2="316.174" y2="191.131" gradientUnits="userSpaceOnUse">
				<stop stop-color="#6BA3DE"></stop>
				<stop offset="1" stop-color="#202873"></stop>
			</linearGradient>
			<linearGradient id="paint17_linear" x1="195.914" y1="191.592" x2="310.889" y2="211.726" gradientUnits="userSpaceOnUse">
				<stop stop-color="#6BA3DE"></stop>
				<stop offset="1" stop-color="#202873"></stop>
			</linearGradient>
			<linearGradient id="paint18_linear" x1="242.777" y1="138.263" x2="309.993" y2="162.114" gradientUnits="userSpaceOnUse">
				<stop stop-color="#6BA3DE"></stop>
				<stop offset="1" stop-color="#202873"></stop>
			</linearGradient>
			<linearGradient id="paint19_linear" x1="216.39" y1="132.653" x2="291.569" y2="165.628" gradientUnits="userSpaceOnUse">
				<stop stop-color="#6BA3DE"></stop>
				<stop offset="1" stop-color="#202873"></stop>
			</linearGradient>
			<linearGradient id="paint20_linear" x1="30.9457" y1="107.4" x2="56.2422" y2="256.531" gradientUnits="userSpaceOnUse">
				<stop stop-color="#93A9D6"></stop>
				<stop offset="1" stop-color="#E0E7F7"></stop>
			</linearGradient>
			<linearGradient id="paint21_linear" x1="350.752" y1="73.9335" x2="331.329" y2="106.502" gradientUnits="userSpaceOnUse">
				<stop stop-color="#E8EDF7" stop-opacity="0.01"></stop>
				<stop offset="1" stop-color="#C2CCE1"></stop>
			</linearGradient>
			<linearGradient id="paint22_linear" x1="251.948" y1="16.2881" x2="299.774" y2="91.4572" gradientUnits="userSpaceOnUse">
				<stop stop-color="#93A9D6"></stop>
				<stop offset="1" stop-color="#E0E7F7"></stop>
			</linearGradient>
			<linearGradient id="paint23_linear" x1="299.103" y1="51.5998" x2="315.515" y2="104.336" gradientUnits="userSpaceOnUse">
				<stop stop-color="#93A9D6"></stop>
				<stop offset="1" stop-color="#E0E7F7"></stop>
			</linearGradient>
			<linearGradient id="paint24_linear" x1="444.801" y1="130.029" x2="397.932" y2="72.12" gradientUnits="userSpaceOnUse">
				<stop stop-color="#C5D5EA" stop-opacity="0.01"></stop>
				<stop offset="1" stop-color="#93AAD0"></stop>
			</linearGradient>
			<linearGradient id="paint25_linear" x1="291.862" y1="164.916" x2="346.612" y2="137.005" gradientUnits="userSpaceOnUse">
				<stop stop-color="#E8EDF7" stop-opacity="0.01"></stop>
				<stop offset="1" stop-color="#CCD6EC"></stop>
			</linearGradient>
			<linearGradient id="paint26_linear" x1="242.777" y1="178.187" x2="316.174" y2="191.131" gradientUnits="userSpaceOnUse">
				<stop stop-color="#6BA3DE"></stop>
				<stop offset="1" stop-color="#202873"></stop>
			</linearGradient>
			<linearGradient id="paint27_linear" x1="195.914" y1="191.592" x2="310.889" y2="211.726" gradientUnits="userSpaceOnUse">
				<stop stop-color="#6BA3DE"></stop>
				<stop offset="1" stop-color="#202873"></stop>
			</linearGradient>
			<linearGradient id="paint28_linear" x1="242.777" y1="138.263" x2="309.993" y2="162.114" gradientUnits="userSpaceOnUse">
				<stop stop-color="#6BA3DE"></stop>
				<stop offset="1" stop-color="#202873"></stop>
			</linearGradient>
			<linearGradient id="paint29_linear" x1="216.39" y1="132.653" x2="291.569" y2="165.628" gradientUnits="userSpaceOnUse">
				<stop stop-color="#6BA3DE"></stop>
				<stop offset="1" stop-color="#202873"></stop>
			</linearGradient>
			<clipPath id="clip0">
				<rect width="370" height="180" rx="10" fill="white"></rect>
			</clipPath>
		</defs>
    </svg>