<svg id="ExportRectangleSvg" width="370px" height="180px" viewBox="0 0 370 180" version="1.1" xmlns="http://www.w3.org/2000/svg" xmlns:xlink="http://www.w3.org/1999/xlink">
		<defs>
			<rect id="pathRectangleExport-1" x="0" y="0" width="370" height="180" rx="10"></rect>
			<linearGradient id="linearGradientRectangleExport-1" x1="100%" y1="-31.4144737%" x2="-9.57900478%" y2="160.300164%">
				<stop stop-color="#6BA3DE" offset="0%"></stop>
				<stop stop-color="#202873" offset="100%"></stop>
			</linearGradient>
			<linearGradient id="linearGradientRectangleExport-2" x1="0%" y1="12.2551133%" x2="50%" y2="100%">
				<stop stop-color="#F1F4FB" offset="0%"></stop>
				<stop stop-color="#DFE6F6" offset="100%"></stop>
			</linearGradient>
			<linearGradient id="linearGradientRectangleExport-3" x1="103.772504%" y1="50%" x2="4.90061435%" y2="57.8274773%">
				<stop stop-color="#F1F4FB" offset="0%"></stop>
				<stop stop-color="#DFE6F6" offset="100%"></stop>
			</linearGradient>
			<linearGradient id="linearGradientRectangleExport-4" x1="50%" y1="0%" x2="50%" y2="100%">
				<stop stop-color="#F1F4FB" offset="0%"></stop>
				<stop stop-color="#CED6EA" offset="100%"></stop>
			</linearGradient>
		</defs>
		<g stroke="none" stroke-width="1" fill="none" fill-rule="evenodd">
			<g transform="translate(-1201.000000, -580.000000)">
				<g transform="translate(1201.000000, 580.000000)">
					<mask id="maskRectangleExport-2" fill="white">
						<use xlink:href="#pathRectangleExport-1"></use>
					</mask>
					<use id="MaskExportRectangle" fill="#FFFFFF" xlink:href="#pathRectangleExport-1"></use>
					<g mask="url(#maskRectangleExport-2)">
						<g transform="translate(261.924806, 89.554646) rotate(27.000000) translate(-261.924806, -89.554646) translate(164.924806, 2.554646)">
							<polyline fill="url(#linearGradientRectangleExport-1)" points="83.6404182 131.354511 47.8258427 140.5595 45.0230778 148.24073 79.1454179 152.087988 83.6404182 131.354511"></polyline>
							<polyline fill="url(#linearGradientRectangleExport-1)" points="94.388757 135.306718 115.819332 165.583944 113.029787 173.263846 84.4997565 154.055456 94.388757 135.306718"></polyline>
							<path d="M28.034621,91.3488769 C27.4132533,93.0307236 25.5623708,93.8968879 23.883356,93.2804765 C22.2175618,92.6653935 21.3582235,90.801546 21.9663706,89.1183708 L28.0214004,72.5217585 C28.6295475,70.8372548 30.4804299,69.9724189 32.1594447,70.5861734 C33.8384595,71.2039133 34.6977978,73.0677609 34.0764301,74.7509361 L28.034621,91.3488769" fill="url(#linearGradientRectangleExport-2)"></path>
							<path d="M54.0527401,94.3166854 C53.4313724,95.9998606 51.5804899,96.8646965 49.9014751,96.248285 C48.2356809,95.6318736 47.3763426,93.7693545 47.9844897,92.0861793 L54.0395195,75.4882385 C54.6476666,73.8037349 56.498549,72.938899 58.1775638,73.553982 C59.8565786,74.1717219 60.7159169,76.0355694 60.0945492,77.7200731 L54.0527401,94.3166854" fill="url(#linearGradientRectangleExport-2)"></path>
							<path d="M80.0708592,97.2831654 C79.4627121,98.9676691 77.598609,99.832505 75.9328148,99.2160936 C74.2538,98.5996821 73.3812411,96.7358346 74.0026088,95.0500025 L80.044418,78.4533901 C80.6657857,76.7688865 82.5166681,75.9040506 84.1956829,76.520462 C85.8746977,77.1368735 86.734036,79.0033779 86.1258889,80.6878816 L80.0708592,97.2831654" fill="url(#linearGradientRectangleExport-2)"></path>
							<path d="M162.554114,140.851764 C161.945967,142.534939 162.805305,144.397458 164.48432,145.013869 C166.150114,145.630281 168.000996,144.764116 168.622364,143.08227 L174.664173,126.484329 C175.285541,124.799825 174.426203,122.935978 172.747188,122.320895 C171.068173,121.704483 169.217291,122.569319 168.609143,124.253823 L162.554114,140.851764" fill="url(#linearGradientRectangleExport-2)"></path>
							<path d="M140.779804,126.233248 C140.171657,127.916423 141.030995,129.778942 142.71001,130.395353 C144.375804,131.011765 146.239907,130.148257 146.848054,128.465082 L152.889863,111.867141 C153.511231,110.182638 152.651893,108.31879 150.972878,107.702379 C149.293863,107.085967 147.442981,107.950803 146.834833,109.635307 L140.779804,126.233248" fill="url(#linearGradientRectangleExport-2)"></path>
							<path d="M119.005494,111.612074 C118.397347,113.296578 119.256685,115.160426 120.9357,115.776837 C122.614714,116.393249 124.465597,115.53107 125.073744,113.846566 L131.128774,97.2499536 C131.736921,95.5654499 130.877583,93.697617 129.198568,93.0812056 C127.532774,92.4647941 125.668671,93.332287 125.060523,95.0167906 L119.005494,111.612074" fill="url(#linearGradientRectangleExport-2)"></path>
							<path d="M53.7354459,47.3724374 L50.1130046,57.3187143 C49.3990927,59.2582848 49.6635045,61.4250241 50.8401369,63.1267979 L53.2462841,66.6525651 L60.5176081,64.6571987 L65.2637995,51.6169085 L53.7354459,47.3724374" fill="url(#linearGradientRectangleExport-1)"></path>
							<path d="M79.2776238,44.7938715 L75.6419619,54.7441337 C74.9412706,56.6837042 75.2056824,58.8464582 76.3690942,60.548232 L78.7752414,64.0726707 L86.0465654,62.0773043 L90.8059774,49.037014 L79.2776238,44.7938715" fill="url(#linearGradientRectangleExport-1)"></path>
							<path d="M107.847317,55.7922989 L94.3358747,92.8566936 L78.629815,87.0765079 L0.337487082,79.4537302 C4.93825204,71.3407461 6.6701492,66.0029418 13.3729878,65.3267491 L107.847317,55.7922989" fill="url(#linearGradientRectangleExport-3)"></path>
							<path d="M171.200379,90.5982897 L167.577938,100.544566 C166.864026,102.485465 165.264334,103.962727 163.281246,104.507401 L159.182864,105.633946 L154.912613,99.3941089 L159.658805,86.3538186 L171.200379,90.5982897" fill="url(#linearGradientRectangleExport-1)"></path>
							<path d="M153.352584,72.0554645 L149.730142,82.0043983 C149.016231,83.9439688 147.42976,85.4199022 145.446672,85.9645761 L141.335068,87.0911211 L137.064818,80.8512838 L141.82423,67.8109935 L153.352584,72.0554645" fill="url(#linearGradientRectangleExport-1)"></path>
							<path d="M124.465597,61.9099167 L110.967376,98.97564 L126.673435,104.754497 L191.348557,149.743233 C193.040792,140.558171 195.156086,135.362514 190.475998,130.497646 L124.465597,61.9099167" fill="url(#linearGradientRectangleExport-2)"></path>
							<path d="M137.540759,0.155852556 C147.033142,8.5013195 142.749671,25.2321076 130.203333,55.4601807 C119.031935,81.5978856 110.782287,101.681739 104.370302,116.785148 C92.6436393,144.38683 86.9984478,155.356031 80.6657857,156.24478 C76.3955354,151.455635 79.1454179,139.422327 87.923889,110.737939 C92.7361834,95.0407031 99.3464779,74.3563796 107.609346,47.1452686 C117.471905,15.9314686 124.954759,0.377707535 137.540759,0.155852556 Z" fill="url(#linearGradientRectangleExport-4)"></path>
							<path d="M80.3088298,165.703507 C79.753565,167.217966 78.0877708,167.996451 76.5806237,167.441149 C75.0734765,166.888505 74.3066824,165.209315 74.8487265,163.694856 L83.6933005,139.438268 C84.2485653,137.923809 85.9143595,137.145324 87.4215066,137.699297 C88.9286538,138.253271 89.7086685,139.93246 89.1534038,141.445591 L80.3088298,165.703507" fill="url(#linearGradientRectangleExport-1)"></path>
						</g>
					</g>
				</g>
			</g>
		</g>
	</svg>